<svg xmlns="http://www.w3.org/2000/svg" xmlns:xlink="http://www.w3.org/1999/xlink" x="0px" y="0px"
                         viewBox="0 0 136.06 136.06" width="22" height="22" style="fill:#ffffff;"
                         xml:space="preserve">
                        <path d="M0.29,67.92c0-13.85-0.13-27.69,0.03-41.54C0.54,8.56,8.69,0.37,26.31,0.25c19.55-0.13,39.11-0.14,58.66,0.01
                            c12.09,0.09,19.94,5.37,23.51,14.68c1.82,4.76,0.95,8.47-3.47,10.66c-4.15,2.06-7.95,0.53-9.72-3.64
                            c-2.45-5.75-6.77-6.82-12.34-6.77c-18.95,0.16-37.91,0.23-56.86-0.02c-7.7-0.1-10.76,2.97-10.69,10.72
                            c0.24,27.99,0.24,55.99,0,83.98c-0.06,7.72,2.94,10.86,10.67,10.76c18.95-0.25,37.91-0.18,56.86-0.02
                            c5.56,0.05,9.92-0.99,12.35-6.76c1.77-4.19,5.57-5.7,9.71-3.68c4.44,2.17,5.43,5.92,3.49,10.64c-3.23,7.87-8.78,13.48-17.19,14.09
                            c-24,1.73-48.1,1.76-72.09,0.03C7.82,134.12,0.76,124.9,0.43,112.17c-0.39-14.74-0.09-29.5-0.09-44.24
                            C0.32,67.92,0.31,67.92,0.29,67.92z">
                        </path>
                        <path d="M107.75,75.36c-20.7,0-41.4-0.06-62.1,0.04c-5.46,0.03-11.13-0.35-11.36-7.1c-0.26-7.41,5.6-7.92,11.44-7.9
                            c20.68,0.1,41.37,0.04,62.89,0.04c-1.86-4.67-5.7-6.74-8.17-9.88c-2.8-3.56-3.12-7.23,0.07-10.51c3.27-3.36,7.21-3.12,10.43-0.03
                            c7.59,7.28,15.01,14.75,22.3,22.32c3.44,3.57,3.31,7.7-0.12,11.25c-7.1,7.34-14.33,14.57-21.64,21.71c-3.44,3.36-7.5,4.2-11.09,0.37
                            c-3.49-3.72-2.75-7.82,0.72-11.14c2.56-2.45,5.64-4.34,8.49-6.48C108.98,77.16,108.37,76.26,107.75,75.36z">
                        </path>
                    </svg>