<svg xmlns="http://www.w3.org/2000/svg" xmlns:xlink="http://www.w3.org/1999/xlink" x="0px" y="0px"
                             viewBox="0 0 26.97 36.18" xml:space="preserve" width="35" height="35">
                            <g>
                                <defs>
                                    <rect id="SVGID_1_" x="-24.3" y="-32.49" width="76.66" height="99.21"/>
                                </defs>
                                <clipPath id="SVGID_00000033364841596515996720000000490999503685323444_">
                                    <use xlink:href="#SVGID_1_"  style="overflow:visible;"/>
                                </clipPath>
                                <path style="clip-path:url(#SVGID_00000033364841596515996720000000490999503685323444_);fill:#F6F6F6;" d="M13.58,16.12
                                    c0.01-0.07,0.02-0.15,0.05-0.21c0.05-0.13,0.18-0.2,0.32-0.18c0.36,0.06,0.89,0.09,1.45,0.09c1.25,0,2.1-0.25,2.95-0.72
                                    c1.88-1.1,2.63-3.04,2.63-5.95c0-4.42-2.23-7.47-6.9-7.47C13.45,1.7,6.39,1.68,4.79,1.66C4.71,1.66,1.23,1.68,0.61,1.68
                                    c-0.23,0-0.42-0.19-0.42-0.42L0.15,0.49c0-0.23,0.19-0.42,0.42-0.42c1.03-0.01,6.08-0.05,8-0.05c3.23-0.06,5.39,0,8.62,0
                                    c1.6,0,4.44,0,6.32,1.51c1.69,1.25,3.17,3.39,3.17,6.58c0,4.2-2.32,6.86-4.67,8.15c-1.76,0.97-3.73,1.38-5.61,1.38
                                    c-0.85,0-1.49-0.03-2.01-0.17c-0.04-0.01-0.08-0.03-0.11-0.06c-0.28-0.25-0.6-0.9-0.68-1.19C13.58,16.18,13.58,16.15,13.58,16.12">
                                </path>
                                <path style="clip-path:url(#SVGID_00000033364841596515996720000000490999503685323444_);fill:#F6F6F6;" d="M0.79,8.1
                                    c1.53,0,2.86,0.14,6.06,0.14c3,0,4.64-0.14,5.88-0.14c0.17,0.14,0.17,1.13,0,1.36c-1.16,0.11-1.67,0.25-2.21,0.34
                                    c-0.99,0.31-1.07,0.76-1.1,1.84c-0.09,1.16-0.09,4.44-0.14,8.69c0,4.92,0.06,9.34,0.14,10.86c0.03,0.74,0.57,1.16,0.82,1.3
                                    c1.08,0.31,4.53,0.31,6.42,0.25c0.91,0,1.65-0.32,2.52-1.47c0.28-0.37,1.29-1.94,1.64-2.67c0.21-0.29,2.04-1,2.2-0.59
                                    c-0.2,1.41-1.25,5.18-2.15,6.62c-0.17,0.34-0.62,0.59-2.15,0.59c-3.17,0-9.34-0.08-12.08-0.08c-2.69,0-5.21,0-6.42,0
                                    c-0.17-0.23-0.1-1.51,0.07-1.66c1.33-0.17,1.92-0.23,2.74-0.42c0.88-0.25,1.16-0.76,1.24-1.75c0.09-1.13,0.2-5.6,0.2-10.64
                                    c0-4.84,0-7.3-0.11-8.66c-0.03-1.39-0.2-1.95-1.3-2.21C2.49,9.66,1.5,9.54,0.71,9.46C0.54,9.2,0.62,8.18,0.79,8.1">
                                </path>
                            </g>
                        </svg>