<?xml version="1.0" standalone="no"?>
<!DOCTYPE svg PUBLIC "-//W3C//DTD SVG 20010904//EN"
 "http://www.w3.org/TR/2001/REC-SVG-20010904/DTD/svg10.dtd">
<svg version="1.0" xmlns="http://www.w3.org/2000/svg"
 width="32.000000pt" height="32.000000pt" viewBox="0 0 32.000000 32.000000"
 preserveAspectRatio="xMidYMid meet">

<g transform="translate(0.000000,32.000000) scale(0.100000,-0.100000)"
fill="#000000" stroke="none">
<path d="M0 243 c0 -60 3 -74 12 -65 7 7 36 12 65 12 l53 0 0 53 c0 29 5 58
12 65 9 9 -5 12 -65 12 l-77 0 0 -77z"/>
<path d="M178 308 c7 -7 12 -36 12 -65 l0 -53 53 0 c29 0 58 -5 65 -12 9 -9
12 5 12 65 l0 77 -77 0 c-60 0 -74 -3 -65 -12z"/>
<path d="M0 77 l0 -77 77 0 c60 0 74 3 65 12 -7 7 -12 36 -12 65 l0 53 -53 0
c-29 0 -58 5 -65 12 -9 9 -12 -5 -12 -65z"/>
<path d="M305 140 c-3 -5 -31 -10 -61 -10 l-54 0 0 -53 c0 -29 -5 -58 -12 -65
-9 -9 5 -12 65 -12 l77 0 0 75 c0 74 -3 85 -15 65z"/>
</g>
</svg>
