<?xml version="1.0" encoding="utf-8"?>
<!-- Generator: Adobe Illustrator 26.1.0, SVG Export Plug-In . SVG Version: 6.00 Build 0)  -->
<svg version="1.1" id="Capa_1" xmlns="http://www.w3.org/2000/svg" xmlns:xlink="http://www.w3.org/1999/xlink" x="0px" y="0px"
	 viewBox="0 0 68.03 68.03" width="24" height="24" style="enable-background:new 0 0 68.03 68.03; fill: #FFFFFF;" xml:space="preserve">
<path d="M2.77,36.55c1.41,0.18,2.24,1.08,3.11,1.96c3.36,3.38,6.89,6.6,10.05,10.16c2.22,2.5,3.49,2.88,6.13,0.15
	c12.71-13.08,25.71-25.88,38.6-38.77c0.77-0.77,1.52-1.56,2.3-2.31c1.33-1.3,2.9-1.8,4.28-0.33c1.39,1.48,0.73,3-0.57,4.29
	c-0.39,0.38-0.78,0.76-1.16,1.14C51.29,27.07,37.05,41.33,22.8,55.57c-3.61,3.61-3.94,3.61-7.51,0.06
	c-4.63-4.61-9.25-9.23-13.85-13.86c-0.97-0.98-1.91-2.03-1.18-3.58C0.77,37.08,1.7,36.62,2.77,36.55z"/>
</svg>
