<?xml version="1.0" encoding="utf-8"?>
<!-- Generator: Adobe Illustrator 26.1.0, SVG Export Plug-In . SVG Version: 6.00 Build 0)  -->
<svg version="1.1" id="Capa_1" xmlns="http://www.w3.org/2000/svg" xmlns:xlink="http://www.w3.org/1999/xlink" x="0px" y="0px"
	 viewBox="0 0 36.04 46.21" style="enable-background:new 0 0 36.04 46.21;" xml:space="preserve">
<style type="text/css">
	.st0{clip-path:url(#SVGID_00000018928678574862819650000014486794249823140764_);fill:#F6F6F6;}
</style>
<g>
	<defs>
		<rect id="SVGID_1_" x="-30.33" y="-41.64" width="99.21" height="128.39"/>
	</defs>
	<clipPath id="SVGID_00000101825638499940519980000006332608819340405425_">
		<use xlink:href="#SVGID_1_"  style="overflow:visible;"/>
	</clipPath>
	<path style="clip-path:url(#SVGID_00000101825638499940519980000006332608819340405425_);fill:#F6F6F6;" d="M18.69,21.27
		c0.01-0.1,0.03-0.19,0.07-0.27c0.07-0.16,0.24-0.26,0.41-0.23c0.47,0.08,1.15,0.11,1.87,0.11c1.62,0,2.72-0.32,3.81-0.93
		c2.43-1.42,3.41-3.93,3.41-7.71c0-5.72-2.88-9.66-8.93-9.66C18.52,2.61,9.39,2.59,7.32,2.56C7.21,2.55,2.71,2.58,1.9,2.58
		c-0.3,0-0.55-0.25-0.55-0.55L1.31,1.04c0-0.3,0.24-0.55,0.54-0.55c1.33-0.01,7.87-0.06,10.35-0.06c4.18-0.08,6.98,0,11.16,0
		c2.07,0,5.75,0,8.18,1.95c2.19,1.62,4.1,4.38,4.1,8.52c0,5.44-3,8.88-6.04,10.55c-2.27,1.26-4.83,1.78-7.26,1.78
		c-1.1,0-1.93-0.04-2.6-0.22c-0.05-0.01-0.1-0.04-0.14-0.08c-0.37-0.32-0.78-1.16-0.89-1.54C18.69,21.35,18.68,21.31,18.69,21.27"/>
	<path style="clip-path:url(#SVGID_00000101825638499940519980000006332608819340405425_);fill:#F6F6F6;" d="M2.13,10.89
		c1.98,0,3.7,0.18,7.84,0.18c3.88,0,6-0.18,7.62-0.18c0.22,0.18,0.22,1.46,0,1.76c-1.5,0.15-2.16,0.33-2.86,0.44
		c-1.28,0.4-1.39,0.99-1.43,2.38c-0.11,1.5-0.11,5.75-0.18,11.24c0,6.37,0.07,12.08,0.18,14.06c0.04,0.95,0.73,1.5,1.06,1.68
		c1.39,0.4,5.86,0.4,8.31,0.33c1.17,0,2.13-0.41,3.26-1.9c0.36-0.47,1.67-2.51,2.12-3.46c0.27-0.37,2.65-1.29,2.85-0.77
		c-0.26,1.83-1.62,6.7-2.79,8.57c-0.22,0.44-0.81,0.77-2.78,0.77c-4.1,0-12.08-0.11-15.63-0.11c-3.48,0-6.74,0-8.31,0
		c-0.22-0.29-0.13-1.96,0.09-2.14c1.72-0.22,2.49-0.29,3.55-0.55c1.14-0.33,1.5-0.99,1.61-2.27c0.11-1.46,0.26-7.25,0.26-13.77
		c0-6.26,0-9.45-0.15-11.2c-0.04-1.79-0.26-2.53-1.68-2.86c-0.73-0.18-2.01-0.33-3.04-0.44C1.8,12.32,1.91,11,2.13,10.89"/>
</g>
</svg>
