<?xml version="1.0" encoding="utf-8"?>
<!-- Generator: Adobe Illustrator 26.0.0, SVG Export Plug-In . SVG Version: 6.00 Build 0)  -->
<svg version="1.1" id="Capa_1" xmlns="http://www.w3.org/2000/svg" xmlns:xlink="http://www.w3.org/1999/xlink" x="0px"
     y="0px"
     viewBox="0 0 356 327" style="enable-background:new 0 0 356 327;" xml:space="preserve">
<style type="text/css">
	.st0{clip-path:url(#SVGID_00000160872929397208223070000004260469808542723739_);fill:#F6F6F6;}
</style>
    <g>
	<defs>
		<rect id="SVGID_1_" x="-128" y="-193" width="612" height="792"/>
	</defs>
        <clipPath id="SVGID_00000175307472872932049410000011528646074889639862_">
		<use xlink:href="#SVGID_1_" style="overflow:visible;"/>
	</clipPath>
        <path style="clip-path:url(#SVGID_00000175307472872932049410000011528646074889639862_);fill:#F6F6F6;" d="M84.7,104.9
		c0-0.4,0.1-0.9,0.3-1.3c0.3-0.8,1.1-1.2,1.9-1.1c2.2,0.4,5.5,0.5,8.8,0.5c7.7,0,12.8-1.5,18-4.4c11.5-6.7,16.1-18.6,16.1-36.4
		c0-27-13.6-45.6-42.2-45.6c-3.8,0.2-46.9,0-56.7-0.1c-0.5,0-21.8,0.1-25.6,0.1c-1.4,0-2.6-1.2-2.6-2.6L2.6,9.4
		c0-1.4,1.1-2.6,2.6-2.6c6.3,0,37.2-0.3,48.9-0.3c19.7-0.4,33,0,52.7,0c9.8,0,27.1,0,38.6,9.2c10.3,7.7,19.3,20.7,19.3,40.2
		c0,25.7-14.2,41.9-28.5,49.8c-10.7,5.9-22.8,8.4-34.3,8.4c-5.2,0-9.1-0.2-12.3-1.1c-0.3-0.1-0.5-0.2-0.7-0.4
		c-1.7-1.5-3.7-5.5-4.2-7.3C84.7,105.3,84.7,105.1,84.7,104.9"/>
        <path style="clip-path:url(#SVGID_00000175307472872932049410000011528646074889639862_);fill:#F6F6F6;" d="M6.5,55.9
		c9.3,0,17.5,0.9,37,0.9c18.3,0,28.4-0.9,36-0.9c1,0.9,1,6.9,0,8.3c-7.1,0.7-10.2,1.6-13.5,2.1c-6,1.9-6.6,4.7-6.7,11.2
		c-0.5,7.1-0.5,27.1-0.9,53.1c0,30.1,0.3,57,0.9,66.4c0.2,4.5,3.5,7.1,5,8c6.6,1.9,27.7,1.9,39.2,1.6c5.5,0,10.1-1.9,15.4-9
		c1.7-2.2,7.9-11.9,10-16.3c1.3-1.8,12.5-6.1,13.5-3.6c-1.2,8.6-7.6,31.6-13.2,40.5c-1,2.1-3.8,3.6-13.1,3.6
		c-19.4,0-57-0.5-73.8-0.5c-16.4,0-31.8,0-39.3,0c-1-1.4-0.6-9.3,0.4-10.1c8.1-1,11.8-1.4,16.8-2.6c5.4-1.6,7.1-4.7,7.6-10.7
		c0.5-6.9,1.2-34.2,1.2-65c0-29.6,0-44.6-0.7-52.9c-0.2-8.5-1.2-11.9-8-13.5c-3.5-0.9-9.5-1.6-14.4-2.1C5,62.6,5.5,56.4,6.5,55.9"/>
        <path style="clip-path:url(#SVGID_00000175307472872932049410000011528646074889639862_);fill:#F6F6F6;" d="M154.7,116.8v17h9.5
		c1.4,0,2.5-0.1,3.4-0.4c0.9-0.2,1.5-0.6,2-1.1c0.5-0.5,0.8-1.2,1-2c0.2-0.8,0.3-1.7,0.4-2.8h1.2v15h-1.2c-0.1-1.1-0.3-1.9-0.4-2.6
		c-0.1-0.7-0.3-1.1-0.4-1.4c-0.2-0.4-0.4-0.7-0.7-1c-0.3-0.3-0.7-0.5-1.1-0.7c-0.5-0.2-1-0.4-1.7-0.5c-0.7-0.1-1.4-0.2-2.3-0.2h-9.5
		v14.2c0,1.9,0.1,3,0.3,3.5c0.1,0.2,0.2,0.4,0.3,0.5c0.1,0.2,0.3,0.3,0.6,0.4c0.2,0.1,0.6,0.2,1,0.3c0.4,0.1,0.9,0.1,1.5,0.1h7.3
		c1.2,0,2.3,0,3.1-0.1c0.8-0.1,1.6-0.2,2.2-0.4c0.6-0.2,1.2-0.4,1.7-0.8c0.5-0.3,1-0.7,1.5-1.3c0.7-0.6,1.3-1.5,2-2.4
		c0.7-1,1.4-2.2,2-3.5h1.3l-3.7,10.8h-33.2v-1.2h1.5c0.4,0,0.8,0,1.3-0.1c0.4-0.1,0.9-0.2,1.3-0.4c0.4-0.2,0.7-0.4,1.1-0.7
		c0.3-0.3,0.5-0.6,0.7-1c0.3-0.7,0.4-2,0.4-4.2v-28c0-2.7-0.3-4.4-0.8-5.1c-0.8-0.8-2-1.3-3.8-1.3h-1.5v-1.2h33.2v9.4h-0.8
		c-0.2-1.1-0.5-2.1-0.7-2.8c-0.2-0.7-0.5-1.4-0.8-1.8c-0.3-0.5-0.6-0.9-1-1.2c-0.4-0.3-0.8-0.5-1.4-0.8c-0.9-0.3-2.4-0.5-4.5-0.5
		H154.7z M165.7,102.7l-9.3,8.7h-1.1l3.4-8.7H165.7z"/>
        <path style="clip-path:url(#SVGID_00000175307472872932049410000011528646074889639862_);fill:#F6F6F6;" d="M224.8,157.5h-11.5
		l-14.6-20.1c-0.6,0-1,0-1.5,0c-0.4,0-0.8,0-1.2,0c-0.3,0-0.6,0-0.9,0c-0.3,0-0.6,0-1,0v12.5c0,2.7,0.3,4.4,0.9,5.1
		c0.8,0.9,2,1.4,3.6,1.4h1.7v1.2H182v-1.2h1.6c1.8,0,3.1-0.6,3.9-1.8c0.4-0.7,0.7-2.2,0.7-4.7v-27.8c0-2.7-0.3-4.4-0.9-5.1
		c-0.8-0.9-2.1-1.4-3.7-1.4H182v-1.2h15.7c4.5,0,7.9,0.3,10.1,1c1.1,0.3,2.1,0.8,3,1.4c0.9,0.6,1.8,1.4,2.5,2.3
		c0.7,0.9,1.3,1.8,1.7,2.9c0.4,1.1,0.6,2.2,0.6,3.5c0,1.3-0.2,2.6-0.6,3.7c-0.4,1.2-1.1,2.2-2,3.2s-2,1.8-3.3,2.5
		c-1.3,0.7-2.9,1.2-4.7,1.7l8.9,12.4c2.1,2.9,3.8,4.7,5.2,5.7c1.5,0.9,3.4,1.5,5.7,1.8V157.5z M194.2,135.4c0.4,0,0.8,0,1,0
		c0.3,0,0.5,0,0.7,0c2.1,0,3.9-0.2,5.4-0.7c1.6-0.5,2.9-1.1,3.9-2c1-0.8,1.8-1.8,2.3-3c0.5-1.2,0.8-2.4,0.8-3.8
		c0-1.3-0.2-2.6-0.7-3.7c-0.4-1.1-1.1-2.1-1.9-2.9c-0.8-0.8-1.8-1.4-2.9-1.9c-1.1-0.4-2.4-0.7-3.7-0.7c-0.6,0-1.3,0-2.2,0.1
		c-0.8,0.1-1.8,0.2-2.8,0.5V135.4z"/>
        <path style="clip-path:url(#SVGID_00000175307472872932049410000011528646074889639862_);fill:#F6F6F6;" d="M237.8,116.8v17h9.5
		c1.4,0,2.5-0.1,3.4-0.4s1.5-0.6,2-1.1c0.5-0.5,0.8-1.2,1-2c0.2-0.8,0.3-1.7,0.4-2.8h1.2v15h-1.2c-0.1-1.1-0.3-1.9-0.4-2.6
		c-0.1-0.7-0.3-1.1-0.4-1.4c-0.2-0.4-0.4-0.7-0.7-1c-0.3-0.3-0.7-0.5-1.1-0.7c-0.5-0.2-1-0.4-1.7-0.5c-0.7-0.1-1.4-0.2-2.3-0.2h-9.5
		v14.2c0,1.9,0.1,3,0.3,3.5c0.1,0.2,0.2,0.4,0.3,0.5c0.1,0.2,0.3,0.3,0.6,0.4c0.2,0.1,0.6,0.2,1,0.3c0.4,0.1,0.9,0.1,1.5,0.1h7.3
		c1.2,0,2.3,0,3.1-0.1c0.8-0.1,1.6-0.2,2.2-0.4s1.2-0.4,1.7-0.8c0.5-0.3,1-0.7,1.5-1.3c0.7-0.6,1.3-1.5,2-2.4s1.4-2.2,2-3.5h1.3
		l-3.7,10.8h-33.2v-1.2h1.5c0.4,0,0.8,0,1.3-0.1c0.4-0.1,0.9-0.2,1.3-0.4c0.4-0.2,0.7-0.4,1.1-0.7c0.3-0.3,0.5-0.6,0.7-1
		c0.3-0.7,0.4-2,0.4-4.2v-28c0-2.7-0.3-4.4-0.8-5.1c-0.8-0.8-2-1.3-3.8-1.3h-1.5v-1.2h33.2v9.4H258c-0.2-1.1-0.5-2.1-0.7-2.8
		s-0.5-1.4-0.8-1.8c-0.3-0.5-0.6-0.9-1-1.2c-0.4-0.3-0.8-0.5-1.4-0.8c-0.9-0.3-2.4-0.5-4.5-0.5H237.8z"/>
        <path style="clip-path:url(#SVGID_00000175307472872932049410000011528646074889639862_);fill:#F6F6F6;" d="M301.4,114.4
		l-28.3,40.5h17.7c2.7,0,4.8-0.6,6.2-1.8c1.5-1.2,2.8-3.6,3.9-7.2l1,0.2l-2,11.4h-35.1v-1.2l27.6-39.3h-13.8c-1.1,0-2.1,0.1-2.9,0.2
		c-0.8,0.1-1.5,0.3-2,0.6c-0.6,0.2-1,0.5-1.4,0.9c-0.4,0.4-0.7,0.8-1,1.3c-0.5,0.9-1,2.6-1.5,5.3h-1.2l0.9-10.8H301.4z"/>
        <path style="clip-path:url(#SVGID_00000175307472872932049410000011528646074889639862_);fill:#F6F6F6;" d="M171.7,204.8H155
		l-2.9,6.8c-0.7,1.7-1.1,2.9-1.1,3.7c0,0.3,0.1,0.7,0.2,0.9c0.1,0.3,0.4,0.6,0.7,0.8c0.4,0.2,0.9,0.4,1.5,0.6
		c0.7,0.2,1.5,0.3,2.6,0.4v1.2h-13.6V218c1.8-0.3,2.9-0.7,3.5-1.2c0.5-0.5,1.1-1.3,1.7-2.3c0.6-1,1.2-2.3,1.9-3.9l15.2-35.5h1.1
		l15,35.8c0.6,1.5,1.2,2.7,1.7,3.6c0.5,0.9,1.1,1.6,1.6,2.1c0.6,0.5,1.1,0.8,1.8,1c0.6,0.2,1.4,0.3,2.3,0.4v1.2h-17V218
		c0.8,0,1.6-0.1,2.1-0.3c0.6-0.1,1-0.3,1.4-0.6c0.3-0.2,0.6-0.5,0.7-0.8c0.1-0.3,0.2-0.6,0.2-1c0-0.5-0.1-1.1-0.3-1.8
		c-0.2-0.7-0.5-1.6-1-2.6L171.7,204.8z M170.8,202.4l-7.3-17.4l-7.5,17.4H170.8z"/>
        <path style="clip-path:url(#SVGID_00000175307472872932049410000011528646074889639862_);fill:#F6F6F6;" d="M232.9,219.2h-11.5
		l-14.6-20.1c-0.6,0-1,0-1.5,0c-0.4,0-0.8,0-1.2,0c-0.3,0-0.6,0-0.9,0c-0.3,0-0.6,0-1,0v12.5c0,2.7,0.3,4.4,0.9,5.1
		c0.8,0.9,2,1.4,3.6,1.4h1.7v1.2H190V218h1.6c1.8,0,3.1-0.6,3.9-1.8c0.4-0.7,0.7-2.2,0.7-4.7v-27.8c0-2.7-0.3-4.4-0.9-5.1
		c-0.8-0.9-2.1-1.4-3.7-1.4H190v-1.2h15.7c4.5,0,7.9,0.3,10.1,1c1.1,0.3,2.1,0.8,3,1.4c0.9,0.6,1.8,1.4,2.5,2.3
		c0.7,0.9,1.3,1.8,1.7,2.9c0.4,1.1,0.6,2.2,0.6,3.5c0,1.3-0.2,2.6-0.6,3.7c-0.4,1.2-1.1,2.2-2,3.2c-0.9,1-2,1.8-3.3,2.5
		c-1.3,0.7-2.9,1.2-4.7,1.7l8.9,12.4c2.1,2.9,3.8,4.7,5.2,5.7c1.5,0.9,3.4,1.5,5.7,1.8V219.2z M202.3,197.1c0.4,0,0.8,0,1,0
		c0.3,0,0.5,0,0.7,0c2.1,0,3.9-0.2,5.4-0.7c1.6-0.5,2.9-1.1,3.9-2c1-0.8,1.8-1.8,2.3-3c0.5-1.2,0.8-2.4,0.8-3.8
		c0-1.3-0.2-2.6-0.7-3.7c-0.4-1.1-1.1-2.1-1.9-2.9c-0.8-0.8-1.8-1.4-2.9-1.9c-1.1-0.4-2.4-0.7-3.7-0.7c-0.6,0-1.3,0-2.2,0.1
		c-0.8,0.1-1.8,0.2-2.8,0.5V197.1z"/>
        <path style="clip-path:url(#SVGID_00000175307472872932049410000011528646074889639862_);fill:#F6F6F6;" d="M262.1,204.8h-16.7
		l-2.9,6.8c-0.7,1.7-1.1,2.9-1.1,3.7c0,0.3,0.1,0.7,0.2,0.9c0.1,0.3,0.4,0.6,0.7,0.8c0.4,0.2,0.9,0.4,1.5,0.6
		c0.7,0.2,1.5,0.3,2.6,0.4v1.2h-13.6V218c1.8-0.3,2.9-0.7,3.5-1.2c0.6-0.5,1.1-1.3,1.7-2.3c0.6-1,1.2-2.3,1.9-3.9l15.2-35.5h1.1
		l15,35.8c0.6,1.5,1.2,2.7,1.7,3.6c0.5,0.9,1.1,1.6,1.6,2.1c0.5,0.5,1.1,0.8,1.8,1c0.6,0.2,1.4,0.3,2.3,0.4v1.2h-17V218
		c0.8,0,1.6-0.1,2.1-0.3c0.6-0.1,1-0.3,1.3-0.6c0.3-0.2,0.6-0.5,0.7-0.8c0.1-0.3,0.2-0.6,0.2-1c0-0.5-0.1-1.1-0.3-1.8
		c-0.2-0.7-0.5-1.6-1-2.6L262.1,204.8z M261.2,202.4l-7.3-17.4l-7.5,17.4H261.2z"/>
        <path style="clip-path:url(#SVGID_00000175307472872932049410000011528646074889639862_);fill:#F6F6F6;" d="M309,197l0.5,7.4H309
		c-0.3-1.1-0.7-2-1.2-2.8c-0.5-0.8-1-1.4-1.6-1.9c-0.6-0.5-1.3-0.9-2-1.1c-0.7-0.2-1.5-0.4-2.4-0.4c-1.4,0-2.7,0.4-3.8,1.1
		c-1.1,0.7-2,1.8-2.7,3.3c-0.4,0.8-0.6,1.7-0.8,2.8c-0.2,1-0.3,2.2-0.3,3.5c0,1.9,0.3,3.6,0.9,5.1c0.3,0.7,0.7,1.4,1.2,1.9
		c0.5,0.6,1,1,1.7,1.4c0.6,0.4,1.3,0.7,2,0.8c0.7,0.2,1.5,0.3,2.3,0.3c0.9,0,1.7-0.1,2.3-0.3c0.6-0.2,1.2-0.5,1.8-0.8
		c0.5-0.4,1-0.8,1.5-1.4c0.5-0.6,1-1.2,1.6-2l0.5,0.3c-0.5,1-1.1,1.8-1.8,2.5c-0.6,0.7-1.3,1.3-2,1.7c-0.7,0.5-1.5,0.8-2.4,1
		c-0.9,0.2-1.8,0.3-2.8,0.3c-3.6,0-6.4-1.3-8.3-4c-1.5-2-2.2-4.3-2.2-7c0-1.3,0.2-2.5,0.5-3.7c0.4-1.2,0.9-2.3,1.6-3.3
		c0.5-0.7,1.1-1.4,1.7-1.9c0.7-0.6,1.4-1,2.1-1.4c0.8-0.4,1.6-0.7,2.4-0.9c0.8-0.2,1.7-0.3,2.6-0.3c1.6,0,3.1,0.4,4.6,1.1
		c0.5,0.2,0.8,0.4,1,0.4c0.3,0,0.6-0.1,0.9-0.4c0.2-0.3,0.4-0.6,0.5-1.1H309z"/>
        <path style="clip-path:url(#SVGID_00000175307472872932049410000011528646074889639862_);fill:#F6F6F6;" d="M321.2,218.5v0.6h-9.3
		v-0.6h0.8c0.9,0,1.6-0.3,1.9-0.8c0.3-0.3,0.4-1.1,0.4-2.5v-14c0-0.5,0-0.9,0-1.2c0-0.3-0.1-0.6-0.1-0.8c-0.1-0.2-0.1-0.4-0.3-0.5
		c-0.1-0.1-0.3-0.2-0.5-0.3c-0.5-0.3-1-0.4-1.5-0.4h-0.8v-0.6h9.3v0.6h-0.8c-0.9,0-1.5,0.3-1.9,0.8c-0.3,0.3-0.4,1.1-0.4,2.5v14
		c0,0.5,0,0.9,0,1.2c0,0.3,0.1,0.6,0.1,0.8c0.1,0.2,0.1,0.4,0.3,0.5s0.3,0.2,0.5,0.3c0.5,0.3,0.9,0.4,1.5,0.4H321.2z"/>
        <path style="clip-path:url(#SVGID_00000175307472872932049410000011528646074889639862_);fill:#F6F6F6;" d="M336.9,211.9h-8.4
		l-1.5,3.4c-0.4,0.8-0.5,1.5-0.5,1.9c0,0.2,0,0.3,0.1,0.5c0.1,0.1,0.2,0.3,0.4,0.4s0.4,0.2,0.8,0.3c0.3,0.1,0.8,0.1,1.3,0.2v0.6
		h-6.8v-0.6c0.9-0.2,1.5-0.4,1.8-0.6c0.3-0.3,0.6-0.6,0.9-1.2c0.3-0.5,0.6-1.2,0.9-2l7.6-17.8h0.6l7.5,18c0.3,0.7,0.6,1.3,0.9,1.8
		c0.3,0.5,0.5,0.8,0.8,1.1c0.3,0.2,0.6,0.4,0.9,0.5c0.3,0.1,0.7,0.2,1.2,0.2v0.6h-8.5v-0.6c0.4,0,0.8-0.1,1.1-0.1
		c0.3-0.1,0.5-0.2,0.7-0.3s0.3-0.2,0.4-0.4c0.1-0.1,0.1-0.3,0.1-0.5c0-0.2,0-0.5-0.2-0.9c-0.1-0.4-0.3-0.8-0.5-1.3L336.9,211.9z
		 M336.5,210.7l-3.7-8.7l-3.8,8.7H336.5z"/>
        <path style="clip-path:url(#SVGID_00000175307472872932049410000011528646074889639862_);fill:#F6F6F6;" d="M349.8,216
		c0.2,0,0.5,0,0.7,0.1c0.2,0.1,0.4,0.2,0.6,0.4c0.2,0.2,0.3,0.3,0.4,0.6c0.1,0.2,0.1,0.4,0.1,0.7c0,0.2,0,0.5-0.1,0.7
		c-0.1,0.2-0.2,0.4-0.4,0.6c-0.2,0.2-0.3,0.3-0.6,0.4c-0.2,0.1-0.4,0.1-0.7,0.1c-0.2,0-0.5,0-0.7-0.1c-0.2-0.1-0.4-0.2-0.6-0.4
		c-0.2-0.2-0.3-0.3-0.4-0.6c-0.1-0.2-0.1-0.4-0.1-0.7c0-0.3,0-0.5,0.1-0.7c0.1-0.2,0.2-0.4,0.4-0.6c0.2-0.2,0.3-0.3,0.6-0.4
		C349.3,216.1,349.6,216,349.8,216"/>
        <path style="clip-path:url(#SVGID_00000175307472872932049410000011528646074889639862_);fill:#F6F6F6;" d="M56.4,256.5H55l-2.4-6
		H46l-2.4,6h-1.2l6.1-15.3h1.8L56.4,256.5z M52.3,249.6l-3-7.5l-3,7.5H52.3z"/>
        <path style="clip-path:url(#SVGID_00000175307472872932049410000011528646074889639862_);fill:#F6F6F6;" d="M69.8,253.7
		c0,1.1-0.4,2-1.3,2.5c-0.7,0.4-1.7,0.6-2.9,0.6c-1.1,0-2.2-0.2-3.2-0.6v-1.1c1,0.5,2.1,0.8,3.3,0.8c2,0,3-0.7,3-2
		c0-0.5-0.2-1-0.7-1.4c-0.3-0.2-1-0.6-2.1-0.9c-1.1-0.4-1.8-0.7-2.2-1.1c-0.7-0.5-1-1.2-1-2c0-1,0.4-1.7,1.3-2.2
		c0.7-0.4,1.6-0.5,2.6-0.5c1,0,1.8,0.2,2.6,0.5v1c-0.9-0.3-1.8-0.5-2.7-0.5c-1.8,0-2.6,0.5-2.6,1.6c0,0.7,0.5,1.2,1.6,1.7
		c1,0.4,2,0.8,2.9,1.2C69.3,251.9,69.8,252.7,69.8,253.7"/>
        <path style="clip-path:url(#SVGID_00000175307472872932049410000011528646074889639862_);fill:#F6F6F6;" d="M86.1,251h-8.7
		c0,1.6,0.5,2.8,1.4,3.6c0.9,0.8,2.1,1.2,3.6,1.2c1.2,0,2.2-0.2,3.3-0.6l-0.6,1.3c-0.9,0.3-2,0.4-3.1,0.4c-1.7,0-3.1-0.5-4.2-1.5
		c-1.2-1-1.7-2.4-1.7-4.2c0-1.6,0.5-2.9,1.4-3.9c1-1,2.2-1.5,3.7-1.5c1.5,0,2.7,0.5,3.6,1.4C85.6,248.2,86.1,249.4,86.1,251
		 M84.7,250.1c-0.1-1-0.4-1.8-1-2.4c-0.6-0.6-1.5-0.9-2.5-0.9s-1.8,0.3-2.5,0.9c-0.7,0.6-1.1,1.4-1.2,2.4H84.7z"/>
        <path style="clip-path:url(#SVGID_00000175307472872932049410000011528646074889639862_);fill:#F6F6F6;" d="M99.8,253.7
		c0,1.1-0.4,2-1.3,2.5c-0.7,0.4-1.7,0.6-2.9,0.6c-1.1,0-2.2-0.2-3.2-0.6v-1.1c1,0.5,2.1,0.8,3.3,0.8c2,0,3-0.7,3-2
		c0-0.5-0.2-1-0.7-1.4c-0.3-0.2-1-0.6-2.1-0.9c-1.1-0.4-1.8-0.7-2.2-1.1c-0.7-0.5-1-1.2-1-2c0-1,0.4-1.7,1.3-2.2
		c0.7-0.4,1.6-0.5,2.6-0.5c1,0,1.8,0.2,2.6,0.5v1c-0.9-0.3-1.8-0.5-2.7-0.5c-1.8,0-2.6,0.5-2.6,1.6c0,0.7,0.5,1.2,1.6,1.7
		c1,0.4,2,0.8,2.9,1.2C99.3,251.9,99.8,252.7,99.8,253.7"/>
        <path style="clip-path:url(#SVGID_00000175307472872932049410000011528646074889639862_);fill:#F6F6F6;" d="M117.4,251.3
		c0,1.6-0.5,2.9-1.6,4c-1.1,1-2.4,1.5-4,1.5s-2.9-0.5-4-1.5c-1.1-1-1.6-2.3-1.6-4c0-1.6,0.5-2.9,1.6-4c1.1-1,2.4-1.5,4-1.5
		s2.9,0.5,4,1.5S117.4,249.7,117.4,251.3 M116.1,251.3c0-1.3-0.4-2.4-1.2-3.2c-0.8-0.9-1.9-1.3-3.1-1.3c-1.3,0-2.3,0.4-3.2,1.3
		c-0.8,0.9-1.2,1.9-1.2,3.2c0,1.3,0.4,2.4,1.2,3.2c0.8,0.9,1.9,1.3,3.2,1.3c1.3,0,2.3-0.4,3.1-1.3
		C115.7,253.7,116.1,252.6,116.1,251.3"/>
        <path style="clip-path:url(#SVGID_00000175307472872932049410000011528646074889639862_);fill:#F6F6F6;" d="M129.6,247
		c-0.2,0-0.4,0-0.6,0c-2.2,0-3.4,1.5-3.4,4.4v5.1h-1.2v-10.3h1.2v1.8c0.6-1.3,1.7-1.9,3.2-1.9c0.3,0,0.5,0,0.8,0.1V247z"/>
        <path style="clip-path:url(#SVGID_00000175307472872932049410000011528646074889639862_);fill:#F6F6F6;" d="M144.9,251h-8.7
		c0,1.6,0.5,2.8,1.4,3.6c0.9,0.8,2.1,1.2,3.6,1.2c1.2,0,2.2-0.2,3.3-0.6l-0.6,1.3c-0.9,0.3-2,0.4-3.1,0.4c-1.7,0-3.1-0.5-4.2-1.5
		c-1.2-1-1.7-2.4-1.7-4.2c0-1.6,0.5-2.9,1.4-3.9c1-1,2.2-1.5,3.7-1.5c1.5,0,2.7,0.5,3.6,1.4C144.5,248.2,144.9,249.4,144.9,251
		 M143.6,250.1c-0.1-1-0.4-1.8-1-2.4c-0.6-0.6-1.5-0.9-2.5-0.9c-1,0-1.8,0.3-2.5,0.9c-0.7,0.6-1.1,1.4-1.2,2.4H143.6z"/>
        <path style="clip-path:url(#SVGID_00000175307472872932049410000011528646074889639862_);fill:#F6F6F6;" d="M158.7,253.7
		c0,1.1-0.4,2-1.3,2.5c-0.7,0.4-1.7,0.6-2.9,0.6c-1.1,0-2.2-0.2-3.2-0.6v-1.1c1,0.5,2.1,0.8,3.3,0.8c2,0,3-0.7,3-2
		c0-0.5-0.2-1-0.7-1.4c-0.3-0.2-1-0.6-2.1-0.9c-1.1-0.4-1.8-0.7-2.2-1.1c-0.7-0.5-1-1.2-1-2c0-1,0.4-1.7,1.3-2.2
		c0.7-0.4,1.6-0.5,2.6-0.5c1,0,1.8,0.2,2.6,0.5v1c-0.9-0.3-1.8-0.5-2.7-0.5c-1.8,0-2.6,0.5-2.6,1.6c0,0.7,0.5,1.2,1.6,1.7
		c1,0.4,2,0.8,2.9,1.2C158.2,251.9,158.7,252.7,158.7,253.7"/>
        <path style="clip-path:url(#SVGID_00000175307472872932049410000011528646074889639862_);fill:#F6F6F6;" d="M188.7,256.5h-1.2v-5
		c0-1.5-0.3-2.6-0.8-3.3c-0.7-0.9-1.7-1.4-3-1.4c-1.2,0-2.2,0.4-3,1.3c-0.8,0.9-1.2,2-1.2,3.2c0,1.4,0.4,2.5,1.2,3.3
		c0.8,0.8,1.9,1.2,3.3,1.2c0.7,0,1.5-0.1,2.3-0.4l-0.4,1c-0.6,0.2-1.4,0.3-2.3,0.3c-1.6,0-2.9-0.5-3.9-1.4c-1-1-1.5-2.3-1.5-3.9
		c0-1.6,0.5-2.9,1.5-4c1-1.1,2.3-1.6,3.9-1.6c1.9,0,3.2,0.7,3.8,2v-6.7h1.2V256.5z"/>
        <path style="clip-path:url(#SVGID_00000175307472872932049410000011528646074889639862_);fill:#F6F6F6;" d="M205.5,251h-8.7
		c0,1.6,0.5,2.8,1.4,3.6c0.9,0.8,2.1,1.2,3.6,1.2c1.2,0,2.2-0.2,3.3-0.6l-0.6,1.3c-0.9,0.3-2,0.4-3.1,0.4c-1.7,0-3.1-0.5-4.2-1.5
		c-1.2-1-1.7-2.4-1.7-4.2c0-1.6,0.5-2.9,1.4-3.9c1-1,2.2-1.5,3.7-1.5c1.5,0,2.7,0.5,3.6,1.4C205.1,248.2,205.5,249.4,205.5,251
		 M204.2,250.1c-0.1-1-0.4-1.8-1-2.4c-0.6-0.6-1.5-0.9-2.5-0.9c-1,0-1.8,0.3-2.5,0.9c-0.7,0.6-1.1,1.4-1.2,2.4H204.2z"/>
        <path style="clip-path:url(#SVGID_00000175307472872932049410000011528646074889639862_);fill:#F6F6F6;" d="M232.3,252.4
		c0,1.5-0.6,2.7-1.7,3.4c-1,0.7-2.3,1-3.8,1c-1.5,0-2.8-0.3-3.9-0.8l-0.2-1.3c1.3,0.7,2.8,1.1,4.2,1.1c1.1,0,2-0.2,2.8-0.7
		c0.9-0.6,1.4-1.4,1.4-2.4c0-1.1-0.7-2-2.2-2.8c-1.3-0.7-2.7-1.4-4-2.1c-1.4-0.9-2.2-2-2.2-3.3c0-1.3,0.6-2.3,1.8-3
		c1-0.6,2.1-0.8,3.5-0.8c1.2,0,2.3,0.2,3.2,0.6v1.2c-1.1-0.5-2.2-0.8-3.2-0.8c-1,0-1.9,0.2-2.6,0.6c-0.9,0.5-1.3,1.2-1.3,2.1
		c0,0.6,0.2,1.1,0.7,1.5c0.3,0.3,0.8,0.6,1.4,1c0.4,0.2,1.1,0.6,2,1c1.3,0.7,2.2,1.2,2.8,1.6C231.8,250.5,232.3,251.4,232.3,252.4"
        />
        <path style="clip-path:url(#SVGID_00000175307472872932049410000011528646074889639862_);fill:#F6F6F6;" d="M248.6,251h-8.7
		c0,1.6,0.5,2.8,1.4,3.6c0.9,0.8,2.1,1.2,3.6,1.2c1.2,0,2.2-0.2,3.3-0.6l-0.6,1.3c-0.9,0.3-2,0.4-3.1,0.4c-1.7,0-3.2-0.5-4.2-1.5
		c-1.2-1-1.7-2.4-1.7-4.2c0-1.6,0.5-2.9,1.4-3.9c1-1,2.2-1.5,3.7-1.5c1.5,0,2.7,0.5,3.6,1.4C248.2,248.2,248.6,249.4,248.6,251
		 M247.3,250.1c-0.1-1-0.4-1.8-1-2.4c-0.6-0.6-1.5-0.9-2.5-0.9s-1.8,0.3-2.5,0.9c-0.7,0.6-1.1,1.4-1.2,2.4H247.3z"/>
        <path style="clip-path:url(#SVGID_00000175307472872932049410000011528646074889639862_);fill:#F6F6F6;" d="M265.6,247.1l-2.9-0.1
		c0.8,0.7,1.2,1.5,1.2,2.6c0,1.2-0.4,2.1-1.3,2.8c-0.8,0.7-1.8,1-2.9,1h-0.4c-1.2,0-1.8,0.3-1.8,0.9c0,0.5,0.7,0.7,2,0.8
		c0.5,0,1.2,0.1,2.1,0.2c2.5,0.3,3.8,1.4,3.8,3.2c0,0.9-0.4,1.8-1.3,2.5c-1,0.9-2.6,1.3-4.7,1.3c-1.3,0-2.4-0.2-3.4-0.6
		c-1.3-0.5-2-1.4-2-2.5c0-0.5,0.2-1,0.6-1.3c0.4-0.3,0.8-0.5,1.4-0.5c0.3,0,0.5,0,0.7,0.1c-1,0.2-1.4,0.7-1.4,1.6
		c0,1.5,1.5,2.2,4.4,2.2c1.1,0,2-0.2,2.8-0.5c1.1-0.5,1.6-1.2,1.6-2.2c0-1.2-1-2-2.9-2.2c-0.6,0-1.5-0.1-2.8-0.2
		c-1.6-0.2-2.3-0.7-2.3-1.6c0-0.7,0.5-1.2,1.6-1.4c-0.8-0.3-1.4-0.7-1.8-1.3c-0.4-0.6-0.7-1.3-0.7-2.1c0-1.2,0.4-2.1,1.3-2.8
		c0.8-0.6,1.8-0.9,3-0.9c0.7,0,1.3,0.1,1.9,0.3h4.2V247.1z M262.7,249.6c0-0.9-0.3-1.6-0.9-2.2c-0.6-0.5-1.4-0.8-2.3-0.8
		c-0.9,0-1.6,0.3-2.2,0.8c-0.6,0.5-0.9,1.3-0.9,2.2c0,0.9,0.3,1.6,0.9,2.2c0.6,0.5,1.3,0.8,2.2,0.8c0.9,0,1.7-0.3,2.3-0.8
		C262.4,251.2,262.7,250.5,262.7,249.6"/>
        <path style="clip-path:url(#SVGID_00000175307472872932049410000011528646074889639862_);fill:#F6F6F6;" d="M279.8,252.4
		c0,1.5-0.4,2.6-1.2,3.3c-0.8,0.8-1.9,1.1-3.3,1.1c-1.4,0-2.6-0.4-3.4-1.1c-0.8-0.8-1.2-1.9-1.2-3.3v-6.2h1.2v6.4
		c0,1,0.3,1.8,0.9,2.4c0.6,0.6,1.4,0.9,2.4,0.9c1,0,1.8-0.3,2.4-0.9c0.6-0.6,0.9-1.4,0.9-2.4v-6.4h1.2V252.4z"/>
        <path style="clip-path:url(#SVGID_00000175307472872932049410000011528646074889639862_);fill:#F6F6F6;" d="M292.3,247
		c-0.2,0-0.4,0-0.6,0c-2.2,0-3.4,1.5-3.4,4.4v5.1h-1.2v-10.3h1.2v1.8c0.6-1.3,1.7-1.9,3.2-1.9c0.3,0,0.5,0,0.8,0.1V247z"/>
        <path style="clip-path:url(#SVGID_00000175307472872932049410000011528646074889639862_);fill:#F6F6F6;" d="M308.4,251.3
		c0,1.6-0.5,2.9-1.6,4c-1.1,1-2.4,1.5-4,1.5c-1.6,0-2.9-0.5-4-1.5c-1.1-1-1.6-2.3-1.6-4c0-1.6,0.5-2.9,1.6-4c1.1-1,2.4-1.5,4-1.5
		c1.6,0,2.9,0.5,4,1.5S308.4,249.7,308.4,251.3 M307.1,251.3c0-1.3-0.4-2.4-1.2-3.2c-0.8-0.9-1.9-1.3-3.1-1.3s-2.3,0.4-3.2,1.3
		c-0.8,0.9-1.2,1.9-1.2,3.2c0,1.3,0.4,2.4,1.2,3.2c0.8,0.9,1.9,1.3,3.2,1.3s2.3-0.4,3.1-1.3C306.7,253.7,307.1,252.6,307.1,251.3"/>
        <path style="clip-path:url(#SVGID_00000175307472872932049410000011528646074889639862_);fill:#F6F6F6;" d="M322.2,253.7
		c0,1.1-0.4,2-1.3,2.5c-0.7,0.4-1.7,0.6-2.9,0.6c-1.1,0-2.2-0.2-3.2-0.6v-1.1c1,0.5,2.1,0.8,3.3,0.8c2,0,3-0.7,3-2
		c0-0.5-0.2-1-0.7-1.4c-0.3-0.2-1-0.6-2.1-0.9c-1.1-0.4-1.8-0.7-2.2-1.1c-0.7-0.5-1-1.2-1-2c0-1,0.4-1.7,1.3-2.2
		c0.7-0.4,1.6-0.5,2.6-0.5c1,0,1.8,0.2,2.6,0.5v1c-0.9-0.3-1.8-0.5-2.7-0.5c-1.8,0-2.6,0.5-2.6,1.6c0,0.7,0.5,1.2,1.6,1.7
		c1,0.4,2,0.8,2.9,1.2C321.7,251.9,322.2,252.7,322.2,253.7"/>
        <path style="clip-path:url(#SVGID_00000175307472872932049410000011528646074889639862_);fill:#F6F6F6;" d="M50.1,317.2
		c-0.2-0.3-0.3-0.8-0.3-1.3c0-0.3,0-0.7,0.1-1c0.1-0.3,0.1-0.6,0.2-0.9c0.3-1.4,0.6-2.8,0.9-4.2c0.3-1.4,0.6-2.8,0.9-4.2
		c0.2-0.8,0.3-1.7,0.5-2.5c0.2-0.8,0.3-1.7,0.5-2.5c0-0.3,0.1-0.6,0.2-0.8c0.1-0.2,0.4-0.4,0.7-0.4c0.2,0,0.4,0.1,0.4,0.4
		c0,0.2,0.1,0.4,0.1,0.6c0,0.1,0,0.1,0,0.2c0,0.1,0,0.2,0,0.2c0,0.6-0.1,1.1-0.1,1.6c0,0.5-0.1,1.1-0.1,1.6
		c-0.1,1.2-0.2,2.4-0.2,3.6c-0.1,1.2-0.1,2.4-0.3,3.6c0,0.6-0.1,1.4-0.1,2.2c-0.1,0.8-0.1,1.5-0.3,2.1c-0.1,0.3-0.1,0.5-0.2,0.8
		c-0.1,0.3-0.2,0.5-0.3,0.7c-0.1,0.2-0.3,0.4-0.5,0.5c-0.2,0.1-0.5,0.2-0.8,0.2C50.8,317.7,50.3,317.5,50.1,317.2 M55.3,293.3
		c0.3,0.2,0.4,0.5,0.4,0.9c0,0.3-0.1,0.7-0.2,1.1c-0.2,0.4-0.5,0.6-0.9,0.6c-0.3,0-0.7-0.1-0.9-0.4c-0.3-0.2-0.4-0.5-0.4-0.9
		c0-0.4,0.1-0.8,0.2-1.1c0.1-0.3,0.5-0.5,1-0.5C54.7,292.9,55,293.1,55.3,293.3"/>
        <path style="clip-path:url(#SVGID_00000175307472872932049410000011528646074889639862_);fill:#F6F6F6;" d="M72.7,292.5
		c0.2-0.3,0.5-0.5,0.7-0.7c0.3-0.2,0.5-0.5,0.7-0.7c0.2-0.2,0.3-0.5,0.3-0.7c0-0.2-0.1-0.3-0.2-0.4s-0.3-0.1-0.4-0.2
		c-0.2,0-0.3-0.1-0.5-0.1c-0.2,0-0.3,0-0.4,0c-0.4,0-0.7,0-1.1,0c-0.4,0-0.7,0.1-1.1,0.1c-0.5,0.1-1.1,0.2-1.7,0.5
		c-0.6,0.2-1.2,0.6-1.8,0.9c-0.6,0.4-1,0.8-1.4,1.3c-0.4,0.5-0.6,1-0.6,1.6c0,0.7,0.2,1.3,0.7,1.9c0.4,0.6,1,1.2,1.6,1.8
		c0.7,0.6,1.4,1.2,2.1,1.8c0.8,0.6,1.5,1.3,2.1,1.9c0.7,0.7,1.2,1.4,1.6,2.1c0.4,0.7,0.7,1.5,0.7,2.3c0,0.8-0.2,1.5-0.6,2.1
		c-0.4,0.6-0.9,1.1-1.5,1.6c-0.6,0.4-1.4,0.8-2.2,1c-0.8,0.3-1.6,0.5-2.5,0.7s-1.7,0.3-2.5,0.3c-0.8,0.1-1.5,0.1-2.1,0.1
		c-0.6,0-1.1,0-1.7-0.1c-0.1,0-0.3,0-0.6-0.1s-0.5-0.1-0.8-0.1s-0.5-0.1-0.7-0.3c-0.2-0.1-0.3-0.3-0.3-0.5c0-0.4,0.1-0.6,0.3-0.6
		c0.2-0.1,0.4-0.1,0.7-0.1c0.5,0,1.1,0.1,1.6,0.2c0.5,0.1,1,0.2,1.6,0.2c0.4,0,0.9,0,1.5-0.1c0.6,0,1.2-0.1,1.9-0.2
		c0.7-0.1,1.3-0.3,2-0.4c0.7-0.2,1.3-0.4,1.8-0.7c0.5-0.3,1-0.6,1.3-1c0.3-0.4,0.5-0.9,0.5-1.4c0-0.6-0.2-1.2-0.7-1.8
		c-0.5-0.6-1.1-1.2-1.8-1.8c-0.7-0.6-1.5-1.2-2.3-1.8c-0.8-0.6-1.6-1.3-2.3-2c-0.7-0.7-1.3-1.5-1.8-2.3c-0.5-0.8-0.7-1.7-0.7-2.7
		c0-0.8,0.2-1.6,0.6-2.2c0.4-0.6,0.9-1.2,1.5-1.6c0.6-0.4,1.3-0.8,2.1-1.1c0.8-0.3,1.6-0.5,2.4-0.7c0.8-0.2,1.6-0.3,2.5-0.3
		c0.8-0.1,1.5-0.1,2.1-0.1c0.3,0,0.6,0,1,0.1c0.4,0,0.8,0.1,1.1,0.3c0.4,0.1,0.7,0.3,0.9,0.6c0.2,0.2,0.4,0.6,0.4,1
		c0,0.4-0.1,0.8-0.3,1.2c-0.2,0.4-0.4,0.7-0.7,1c-0.1,0.1-0.3,0.3-0.6,0.5c-0.2,0.2-0.5,0.3-0.8,0.5c-0.3,0.1-0.5,0.3-0.8,0.4
		c-0.3,0.1-0.5,0.1-0.7,0.1c-0.2,0-0.4-0.1-0.6-0.2c-0.2-0.1-0.2-0.3-0.2-0.6C72.4,293,72.5,292.8,72.7,292.5"/>
        <path style="clip-path:url(#SVGID_00000175307472872932049410000011528646074889639862_);fill:#F6F6F6;" d="M91.5,306.8
		c-0.2,0.3-0.3,0.5-0.4,0.6c-0.3,0.4-0.7,0.9-1.1,1.4c-0.4,0.5-0.9,1-1.4,1.5c-0.5,0.5-1,0.9-1.6,1.2c-0.6,0.3-1.1,0.5-1.7,0.5
		c-0.5,0-1-0.2-1.3-0.6c-0.3-0.4-0.6-0.8-0.7-1.3s-0.3-1.1-0.3-1.6c0-0.6-0.1-1,0-1.4c-0.2,0.3-0.5,0.7-0.8,1.2
		c-0.3,0.5-0.7,0.9-1.1,1.4c-0.4,0.4-0.8,0.8-1.3,1.1c-0.4,0.3-0.9,0.5-1.3,0.5c-0.4,0-0.7-0.1-1-0.3c-0.3-0.2-0.5-0.5-0.6-0.9
		c-0.1-0.3-0.2-0.7-0.3-1.1c-0.1-0.4-0.1-0.7-0.1-1c0-0.8,0.2-1.8,0.6-2.8c0.4-1.1,0.9-2.1,1.6-3c0.7-0.9,1.4-1.7,2.3-2.4
		c0.9-0.6,1.8-1,2.7-1c0.2,0,0.5,0.1,0.7,0.3c0.2,0.2,0.4,0.4,0.4,0.7c0,0.1,0,0.2-0.1,0.2c-0.1,0.1-0.1,0.1-0.2,0.1
		c-0.6,0.3-1.1,0.7-1.6,1.1c-0.5,0.4-1,0.8-1.5,1.3c-0.8,0.8-1.5,1.8-2,2.8c-0.5,1.1-0.7,2.2-0.7,3.4c0,0.1,0,0.3,0.1,0.5
		c0,0.2,0.2,0.3,0.4,0.3c0.2,0,0.5-0.1,0.8-0.4c0.3-0.3,0.6-0.6,0.9-1.1c0.3-0.4,0.6-0.9,0.9-1.5c0.3-0.5,0.6-1.1,0.9-1.6
		c0.3-0.5,0.5-1,0.7-1.4c0.2-0.4,0.4-0.8,0.5-1c0.1-0.2,0.2-0.5,0.4-0.7c0.2-0.2,0.4-0.3,0.7-0.3c0.2,0,0.3,0,0.5,0.1
		c0.2,0.1,0.2,0.2,0.2,0.4c0,0.2-0.1,0.5-0.2,0.9c-0.1,0.4-0.3,0.7-0.4,0.9c-0.2,0.6-0.3,1.1-0.4,1.8c-0.1,0.6-0.1,1.2-0.1,1.8
		c0,0.2,0,0.4,0,0.8c0,0.3,0,0.7,0.1,1c0.1,0.4,0.2,0.7,0.3,0.9c0.1,0.3,0.3,0.4,0.6,0.4c0.4,0,0.8-0.2,1.3-0.5
		c0.5-0.3,0.9-0.7,1.4-1.2c0.4-0.5,0.9-0.9,1.2-1.4c0.4-0.5,0.7-0.9,0.9-1.2c0.1-0.2,0.2-0.3,0.3-0.5c0.1-0.2,0.3-0.3,0.5-0.3
		c0.3,0,0.5,0.2,0.5,0.6C91.7,306.3,91.6,306.6,91.5,306.8"/>
        <path style="clip-path:url(#SVGID_00000175307472872932049410000011528646074889639862_);fill:#F6F6F6;" d="M100.5,303.5
		c0,1.2-0.3,2.4-0.8,3.6c-0.5,1.2-1.2,2.2-2.1,3.1c-0.5,0.5-1,0.9-1.7,1.3c-0.6,0.4-1.3,0.6-2,0.6c-0.7,0-1.3-0.2-1.8-0.7
		c-0.4-0.4-0.8-1-1-1.6c-0.2-0.6-0.4-1.3-0.5-2c-0.1-0.7-0.1-1.3-0.1-1.9c0-2.5,0.3-5.1,0.8-7.6c0.5-2.5,1.2-5,1.9-7.4
		c0.2-0.8,0.5-1.6,0.7-2.4c0.2-0.8,0.5-1.6,0.8-2.3c0.1-0.3,0.2-0.5,0.3-0.7c0.1-0.2,0.2-0.4,0.3-0.5c0.1-0.1,0.3-0.3,0.5-0.4
		c0.2-0.1,0.4-0.2,0.7-0.4c0.2-0.1,0.4-0.2,0.5-0.2c0.2-0.1,0.4-0.1,0.6-0.1c0.2,0,0.4,0.1,0.5,0.2c0.1,0.1,0.2,0.3,0.2,0.6
		c0,0.2,0,0.5-0.1,0.7c-0.1,0.3-0.1,0.6-0.2,0.9c-0.1,0.3-0.2,0.6-0.3,0.8c-0.1,0.3-0.2,0.5-0.3,0.7c-0.7,1.9-1.4,3.9-2,5.8
		c-0.6,2-1.1,4-1.4,6c-0.2,1-0.3,2-0.5,3.1c-0.2,1-0.3,2-0.3,3.1c0,0.2,0,0.6,0,1.2c0,0.5,0.1,1.1,0.2,1.6c0.1,0.5,0.3,1,0.5,1.4
		c0.2,0.4,0.5,0.6,0.9,0.6c0.3,0,0.5-0.1,0.8-0.2c0.2-0.2,0.4-0.3,0.6-0.5c0.3-0.3,0.6-0.7,0.9-1.1c0.3-0.5,0.5-0.9,0.8-1.4
		c0.2-0.5,0.4-1,0.6-1.6c0.1-0.5,0.2-1,0.2-1.4c0-1-0.3-1.8-0.9-2.2c-0.6-0.4-1.4-0.6-2.3-0.6c-0.2,0-0.4-0.1-0.5-0.3
		c-0.1-0.2-0.2-0.4-0.2-0.6c0-0.3,0.1-0.5,0.4-0.7c0.3-0.1,0.5-0.2,0.8-0.2c0.3,0,0.6,0,0.9,0c0.3,0,0.6,0,1,0
		c0.6,0,1.3-0.1,1.9-0.2c0.6-0.1,1.3-0.1,1.9-0.2h0.1c0.2,0,0.4,0,0.5,0.2c0.2,0.1,0.2,0.3,0.2,0.5s-0.1,0.4-0.3,0.5
		c-0.2,0.1-0.5,0.2-0.7,0.3c-0.3,0.1-0.6,0.1-0.9,0.2c-0.3,0-0.5,0.1-0.7,0.1C100.3,301.8,100.5,302.6,100.5,303.5"/>
        <path style="clip-path:url(#SVGID_00000175307472872932049410000011528646074889639862_);fill:#F6F6F6;" d="M105.3,311.4
		c-0.4-0.2-0.8-0.6-1.1-1c-0.3-0.4-0.5-0.8-0.6-1.4c-0.1-0.5-0.2-1.1-0.2-1.6c0-0.7,0.1-1.6,0.4-2.6c0.3-1,0.7-2,1.2-2.9
		c0.5-0.9,1.1-1.7,1.8-2.4s1.5-1,2.3-1c0.6,0,1,0.2,1.3,0.5c0.3,0.4,0.5,0.8,0.5,1.4c0,0.5-0.2,1.1-0.5,1.8
		c-0.3,0.6-0.7,1.3-1.2,1.9c-0.5,0.6-1,1.1-1.6,1.6c-0.6,0.5-1.1,0.8-1.6,1c-0.1,0.5-0.2,0.9-0.2,1.3c0,0.7,0.2,1.3,0.5,1.7
		c0.3,0.4,0.8,0.6,1.6,0.6c0.7,0,1.3-0.1,1.9-0.4c0.6-0.3,1.1-0.6,1.7-1c0.5-0.4,1-0.9,1.4-1.4c0.4-0.5,0.8-1.1,1.1-1.6
		c0.1-0.2,0.2-0.3,0.4-0.5c0.1-0.2,0.3-0.3,0.6-0.3c0.1,0,0.2,0,0.3,0.1c0.1,0.1,0.1,0.1,0.1,0.3c0,0.2,0,0.4-0.1,0.5
		c0,0.1-0.1,0.3-0.2,0.4c-0.4,0.7-0.9,1.4-1.5,2.1c-0.6,0.7-1.2,1.2-1.9,1.7c-0.7,0.5-1.5,0.9-2.3,1.2c-0.8,0.3-1.6,0.4-2.5,0.4
		C106.3,311.7,105.7,311.6,105.3,311.4 M108,300.6c-0.3,0.5-0.6,1-0.9,1.6c-0.3,0.6-0.5,1.2-0.7,1.8c-0.2,0.6-0.3,1.1-0.3,1.3
		c0.3-0.2,0.7-0.5,1.1-0.8s0.8-0.7,1.1-1.2c0.3-0.4,0.6-0.9,0.9-1.3c0.2-0.5,0.3-0.9,0.3-1.3c0-0.2,0-0.3-0.1-0.5
		c-0.1-0.2-0.2-0.2-0.4-0.2C108.6,299.9,108.3,300.1,108,300.6"/>
        <path style="clip-path:url(#SVGID_00000175307472872932049410000011528646074889639862_);fill:#F6F6F6;" d="M122.4,310.5
		c-0.1-0.4-0.3-0.9-0.4-1.5c-0.1-0.6-0.1-1.3-0.2-2.1c0-0.7-0.1-1.5-0.1-2.2v-1.8v-1.1c0-0.1,0-0.2,0-0.4c0-0.2-0.1-0.3-0.3-0.3
		c-0.2,0-0.5,0.2-0.9,0.6c-0.4,0.4-0.8,0.9-1.2,1.5c-0.4,0.6-0.9,1.3-1.3,2c-0.5,0.7-0.9,1.5-1.3,2.2c-0.4,0.7-0.8,1.3-1.1,1.9
		c-0.3,0.6-0.5,1-0.6,1.2c-0.1,0.2-0.2,0.5-0.4,0.7c-0.2,0.2-0.4,0.3-0.7,0.3c-0.2,0-0.4-0.1-0.5-0.2c-0.1-0.1-0.2-0.3-0.2-0.5
		c0-0.3,0-0.8,0.1-1.5c0.1-0.7,0.2-1.4,0.3-2.3c0.1-0.9,0.3-1.8,0.5-2.7c0.2-0.9,0.4-1.8,0.6-2.7c0.2-0.8,0.4-1.6,0.6-2.2
		c0.2-0.6,0.4-1.1,0.5-1.3c0.2-0.4,0.6-0.7,1.1-1c0.5-0.2,1-0.3,1.4-0.3c0.2,0,0.4,0.1,0.5,0.2c0.1,0.1,0.2,0.3,0.2,0.6
		c0,0.2,0,0.5-0.1,0.8c-0.1,0.3-0.2,0.6-0.3,0.9c-0.1,0.3-0.3,0.6-0.4,0.9c-0.1,0.3-0.2,0.6-0.3,0.8c-0.2,0.6-0.4,1.2-0.6,1.8
		c-0.1,0.6-0.3,1.2-0.4,1.8c0.2-0.3,0.6-0.8,1-1.4c0.4-0.6,0.8-1.2,1.3-1.8c0.5-0.6,1-1.1,1.5-1.5c0.5-0.4,1-0.7,1.4-0.7
		c0.3,0,0.5,0.1,0.7,0.3c0.2,0.2,0.3,0.4,0.4,0.7c0.1,0.3,0.2,0.6,0.2,0.9s0,0.6,0,0.8c0,0.6,0,1.2,0,1.8c0,0.6,0,1.2,0,1.8v1
		c0,0.3,0,0.7,0.1,1c0,0,0,0.1,0,0.1c0,0.1,0.1,0.1,0.1,0.1c0.1,0,0.1-0.1,0.2-0.2c0.1-0.2,0.2-0.3,0.2-0.3c0.4-0.6,0.8-1.3,1.2-1.9
		c0.4-0.6,0.9-1.2,1.3-1.8c0.3-0.4,0.6-0.8,0.9-1.3c0.3-0.5,0.7-1,1.1-1.4c0.4-0.4,0.8-0.8,1.3-1.1c0.5-0.3,0.9-0.5,1.4-0.5
		c0.3,0,0.6,0.1,0.9,0.3c0.3,0.2,0.5,0.4,0.6,0.6c0.2,0.3,0.3,0.5,0.4,0.8c0.1,0.3,0.1,0.6,0.1,0.9c0,1.2-0.1,2.5-0.2,3.7
		c-0.1,1.2-0.2,2.4-0.2,3.7c0,0.1,0,0.3,0,0.5c0,0.2,0,0.4,0.1,0.6c0.1,0.2,0.1,0.3,0.3,0.4c0.1,0.1,0.3,0.2,0.5,0.2
		c0.4,0,0.8-0.1,1.2-0.4c0.5-0.3,0.9-0.6,1.4-1c0.4-0.4,0.9-0.8,1.2-1.3s0.7-0.8,0.9-1.1c0.1-0.1,0.2-0.3,0.4-0.5
		c0.2-0.2,0.4-0.3,0.6-0.3c0.2,0,0.3,0.1,0.4,0.2c0.1,0.1,0.1,0.3,0.1,0.4c0,0.1,0,0.2-0.1,0.3c-0.1,0.1-0.1,0.2-0.2,0.3
		c-0.3,0.4-0.7,0.9-1.3,1.5c-0.5,0.6-1.1,1.1-1.7,1.6c-0.6,0.5-1.3,1-1.9,1.3c-0.6,0.4-1.2,0.5-1.8,0.5c-0.5,0-0.9-0.1-1.2-0.4
		c-0.3-0.3-0.5-0.7-0.7-1.1c-0.1-0.4-0.2-0.9-0.3-1.4c0-0.5,0-0.9,0-1.3c0-1,0-1.9,0.1-2.9c0.1-1,0.1-1.9,0.1-2.9c0-0.1,0-0.2,0-0.4
		c0-0.1,0-0.3-0.1-0.4c0-0.1-0.1-0.3-0.2-0.4c-0.1-0.1-0.2-0.2-0.3-0.2c-0.3,0-0.6,0.2-1,0.6c-0.4,0.4-0.8,0.9-1.2,1.5
		c-0.4,0.6-0.9,1.3-1.3,2.1s-0.9,1.5-1.3,2.2c-0.4,0.7-0.8,1.3-1.1,1.9c-0.3,0.6-0.5,1-0.7,1.2c-0.1,0.2-0.2,0.3-0.3,0.4
		c-0.1,0.1-0.3,0.2-0.5,0.2C122.8,311.2,122.6,311,122.4,310.5"/>
        <path style="clip-path:url(#SVGID_00000175307472872932049410000011528646074889639862_);fill:#F6F6F6;" d="M139.7,305
		c0.3-1,0.7-1.9,1.2-2.7c0.5-0.8,1.1-1.6,1.9-2.1c0.7-0.6,1.6-0.9,2.5-0.9c0.6,0,1.1,0.1,1.5,0.4c0.4,0.3,0.7,0.6,0.9,1.1
		c0.2,0.4,0.4,0.9,0.5,1.4c0.1,0.5,0.1,1,0.1,1.5c0,0.7-0.1,1.4-0.2,2.1c-0.1,0.7-0.3,1.4-0.6,2.1c-0.3,0.7-0.6,1.3-1.1,1.8
		s-0.9,1.1-1.6,1.5c-0.4,0.2-0.8,0.4-1.2,0.6c-0.4,0.2-0.9,0.2-1.3,0.2c-0.6,0-1.1-0.1-1.4-0.4c-0.4-0.3-0.7-0.6-0.9-1
		c-0.2-0.4-0.4-0.9-0.5-1.4c-0.1-0.5-0.2-1-0.2-1.5C139.3,306.9,139.5,306,139.7,305 M143.7,302.1c-0.5,0.5-0.8,1.1-1.1,1.8
		c-0.3,0.7-0.5,1.4-0.7,2.1c-0.2,0.7-0.2,1.3-0.2,1.8c0,0.3,0,0.5,0.1,0.8c0,0.3,0.1,0.6,0.2,0.8c0.1,0.3,0.3,0.5,0.5,0.7
		c0.2,0.2,0.5,0.3,0.8,0.3c0.3,0,0.5-0.1,0.8-0.2c0.2-0.1,0.5-0.3,0.7-0.4c0.4-0.3,0.7-0.7,1-1.1c0.3-0.4,0.5-0.9,0.7-1.4
		c0.2-0.5,0.3-1,0.4-1.5c0.1-0.5,0.1-1,0.1-1.5c0-0.3,0-0.6-0.1-0.9c0-0.3-0.1-0.7-0.3-0.9c-0.1-0.3-0.3-0.5-0.5-0.7
		c-0.2-0.2-0.5-0.3-0.8-0.3C144.7,301.3,144.2,301.6,143.7,302.1"/>
        <path style="clip-path:url(#SVGID_00000175307472872932049410000011528646074889639862_);fill:#F6F6F6;" d="M155.4,300.9
		c0.3,0.6,0.6,1.2,0.9,1.8c0.3,0.6,0.7,1.2,1,1.9c0.3,0.6,0.6,1.3,0.8,1.9c0.2,0.7,0.3,1.3,0.3,2c0,0.4-0.1,0.9-0.2,1.3
		c-0.1,0.4-0.3,0.8-0.6,1.2c0.4,0,0.8-0.1,1.3-0.5c0.5-0.4,1-0.8,1.5-1.2c0.5-0.5,1-1,1.4-1.5c0.4-0.5,0.7-0.9,0.9-1.2
		c0.1-0.1,0.2-0.3,0.4-0.5c0.1-0.2,0.3-0.3,0.5-0.3c0.2,0,0.3,0.1,0.4,0.2c0.1,0.1,0.1,0.3,0.1,0.4c0,0.1,0,0.2-0.1,0.3
		c-0.1,0.1-0.1,0.2-0.2,0.3c-0.6,0.9-1.2,1.8-1.9,2.5c-0.7,0.7-1.4,1.4-2.1,1.9c-0.8,0.5-1.6,0.9-2.6,1.2c-0.9,0.3-2,0.4-3.1,0.4
		c-0.6,0-1.3-0.1-2-0.2c-0.7-0.1-1.3-0.4-1.8-0.9c-0.1-0.1-0.2-0.2-0.3-0.3c-0.1-0.1-0.1-0.2-0.1-0.4c0-0.3,0.2-0.5,0.5-0.5
		c0.1,0,0.2,0,0.3,0.1c0.1,0,0.2,0.1,0.3,0.2c0.4,0.2,0.7,0.4,1.1,0.5c0.4,0.1,0.8,0.1,1.2,0.1c0.8,0,1.5-0.3,1.9-0.8
		c0.4-0.5,0.7-1.2,0.7-2c0-0.5-0.1-1-0.2-1.6s-0.3-1.1-0.5-1.7c-0.2-0.6-0.5-1.1-0.7-1.6c-0.3-0.5-0.5-1-0.8-1.4
		c-0.1,0.4-0.3,0.9-0.6,1.4s-0.5,1-0.7,1.5c-0.3,0.5-0.6,1-0.9,1.5c-0.3,0.5-0.6,0.9-0.9,1.2c-0.1,0.1-0.2,0.2-0.4,0.3
		s-0.3,0.2-0.5,0.2c-0.3,0-0.4-0.1-0.4-0.4c0-0.2,0-0.3,0.1-0.4c0.1-0.1,0.2-0.3,0.3-0.4c1.4-1.8,2.5-3.8,3.2-6.1
		c-0.2-0.6-0.3-1.1-0.3-1.7c0-0.3,0.1-0.7,0.2-1.1c0.1-0.4,0.3-0.8,0.4-1.2c0.2-0.4,0.4-0.7,0.7-1c0.3-0.3,0.6-0.4,1-0.4
		c0.2,0,0.4,0.1,0.5,0.2c0.1,0.1,0.2,0.3,0.3,0.4c0.1,0.2,0.1,0.4,0.2,0.6c0,0.2,0,0.4,0,0.5c0,0.5-0.1,1.1-0.2,1.6
		C155.7,299.9,155.5,300.4,155.4,300.9"/>
        <path style="clip-path:url(#SVGID_00000175307472872932049410000011528646074889639862_);fill:#F6F6F6;" d="M173.1,324.2
		c-0.3-0.2-0.6-0.5-0.8-0.8c-0.2-0.3-0.4-0.7-0.5-1.1c-0.1-0.4-0.1-0.8-0.1-1.3c0-1.1,0.3-2.1,0.8-3.2c0.6-1,1.3-2,2.1-2.9
		c0.8-0.9,1.7-1.8,2.7-2.6c1-0.8,1.9-1.4,2.7-2c0-0.3,0-0.6,0-0.9v-0.9c0-1.6,0-3.3-0.1-4.9c-0.3,0.4-0.7,1-1.3,1.8
		c-0.6,0.7-1.3,1.5-2,2.2c-0.7,0.7-1.4,1.3-2.2,1.8c-0.7,0.5-1.4,0.8-1.9,0.8c-0.4,0-0.7-0.1-0.9-0.2c-0.2-0.2-0.4-0.4-0.5-0.6
		c-0.1-0.2-0.2-0.5-0.3-0.8c0-0.3-0.1-0.6-0.1-0.9c0-1,0.1-1.9,0.3-2.9c0.2-1,0.5-1.9,0.8-2.8c0.1-0.2,0.1-0.4,0.2-0.6
		c0.1-0.2,0.1-0.4,0.2-0.6c0.1-0.3,0.3-0.5,0.5-0.6c0.2-0.2,0.4-0.3,0.7-0.3c0.4,0,0.7,0.1,1,0.4c0.3,0.3,0.4,0.6,0.4,0.9
		c0,0.3-0.1,0.6-0.3,1c-0.2,0.4-0.3,0.7-0.4,0.9c-0.1,0.3-0.2,0.6-0.4,1.1c-0.2,0.4-0.3,0.9-0.4,1.4c-0.1,0.5-0.3,1-0.4,1.4
		c-0.1,0.4-0.1,0.8-0.1,1.1c0,0.1,0,0.2,0,0.4c0,0.2,0.1,0.3,0.3,0.3c0.1,0,0.3-0.1,0.5-0.2c0.2-0.1,0.4-0.3,0.7-0.5
		c0.2-0.2,0.4-0.4,0.6-0.6c0.2-0.2,0.3-0.3,0.4-0.4c0.9-0.9,1.7-1.8,2.4-2.8c0.7-1,1.5-2,2.2-2.9c0.1-0.2,0.3-0.4,0.5-0.6
		c0.2-0.2,0.4-0.3,0.7-0.3c0.2,0,0.4,0.1,0.6,0.2c0.1,0.1,0.2,0.3,0.3,0.6c0.1,0.3,0.1,0.7,0.2,1.1c0,0.4,0,0.8,0,1.1v0.8
		c0,1.4,0,2.8-0.1,4.3c-0.1,1.5-0.2,3-0.4,4.5c-0.2,1.5-0.6,2.9-1,4.3s-1,2.7-1.8,3.9c-0.3,0.4-0.6,0.8-0.9,1.2s-0.7,0.7-1.1,1
		c-0.4,0.3-0.8,0.5-1.3,0.7c-0.5,0.2-1,0.3-1.5,0.3C173.8,324.5,173.4,324.4,173.1,324.2 M177.6,313.6c-0.8,0.7-1.5,1.4-2.2,2.2
		c-0.7,0.8-1.2,1.6-1.7,2.5c-0.5,0.9-0.7,1.8-0.7,2.7c0,0.2,0,0.4,0,0.7c0,0.2,0.1,0.5,0.2,0.7s0.2,0.4,0.4,0.5
		c0.2,0.1,0.4,0.2,0.6,0.2s0.5-0.1,0.7-0.2c0.2-0.1,0.5-0.3,0.7-0.5s0.4-0.4,0.6-0.6c0.2-0.2,0.4-0.4,0.5-0.6c0.4-0.6,0.8-1.2,1.1-2
		c0.3-0.8,0.6-1.6,0.9-2.5s0.5-1.7,0.6-2.6c0.2-0.9,0.3-1.6,0.4-2.3C179.2,312.3,178.4,313,177.6,313.6"/>
        <path style="clip-path:url(#SVGID_00000175307472872932049410000011528646074889639862_);fill:#F6F6F6;" d="M200.1,311.8
		c-0.5,0-1-0.1-1.4-0.3c-0.5-0.1-0.9-0.3-1.3-0.5c-0.4-0.2-0.7-0.5-1-0.8c-0.1,1-0.2,2.1-0.3,3.5c-0.1,1.3-0.3,2.7-0.5,4
		c-0.2,1.4-0.4,2.7-0.6,4c-0.2,1.3-0.5,2.3-0.9,3.2c-0.1,0.2-0.2,0.4-0.3,0.7s-0.3,0.5-0.5,0.7c-0.2,0.2-0.4,0.4-0.6,0.5
		c-0.2,0.1-0.5,0.2-0.7,0.2c-0.4,0-0.7-0.1-0.9-0.4c-0.2-0.2-0.4-0.5-0.5-0.9c-0.1-0.3-0.2-0.7-0.3-1.1c0-0.4-0.1-0.7-0.1-1
		c0-1.2,0.1-2.5,0.3-3.8c0.2-1.4,0.5-2.8,0.9-4.2c0.4-1.4,0.7-2.8,1.2-4.1c0.4-1.3,0.8-2.6,1.2-3.7c0.1-0.2,0.1-0.5,0.1-0.8
		c0-0.4,0-0.6,0.1-0.9c0.1-0.7,0.2-1.5,0.2-2.2c0.1-0.7,0.1-1.5,0.2-2.2c0-0.2,0-0.4,0-0.7c0-0.3,0-0.6,0.1-0.8
		c0.1-0.3,0.2-0.5,0.3-0.7c0.1-0.2,0.3-0.3,0.6-0.3c0.2,0,0.4,0.1,0.6,0.2c0.2,0.1,0.4,0.3,0.5,0.5c0.1,0.2,0.3,0.4,0.4,0.6
		s0.1,0.4,0.1,0.6c0,0.4,0,0.7-0.1,1.1c-0.1,0.4-0.1,0.7-0.1,1.1c0.3-0.4,0.6-0.8,1.1-1.3c0.4-0.5,0.9-1,1.4-1.4
		c0.5-0.5,1-0.9,1.6-1.2c0.5-0.3,1.1-0.5,1.6-0.5c0.5,0,0.9,0.1,1.3,0.3c0.3,0.2,0.6,0.5,0.8,0.8c0.2,0.3,0.3,0.7,0.4,1.1
		c0.1,0.4,0.1,0.8,0.1,1.3c0,0.6-0.1,1.2-0.2,1.9c-0.1,0.7-0.3,1.4-0.6,2c-0.2,0.7-0.5,1.3-0.9,1.9c-0.3,0.6-0.7,1.1-1.1,1.5
		c-0.2,0.2-0.4,0.4-0.7,0.6c-0.2,0.2-0.5,0.3-0.8,0.3c0.3,0.1,0.6,0.1,1,0.1c0.7,0,1.5-0.1,2.1-0.4c0.7-0.3,1.3-0.6,1.9-1.1
		c0.6-0.4,1.2-1,1.6-1.5c0.5-0.6,0.9-1.2,1.2-1.8c0.1-0.1,0.2-0.3,0.3-0.5c0.1-0.2,0.3-0.3,0.4-0.3c0.4,0,0.5,0.2,0.5,0.6
		c0,0.2,0,0.4-0.1,0.5c-0.1,0.1-0.1,0.3-0.2,0.4c-0.5,0.8-1,1.5-1.5,2.1c-0.6,0.6-1.2,1.2-1.8,1.7c-0.7,0.5-1.4,0.8-2.2,1.1
		c-0.8,0.3-1.7,0.4-2.6,0.4C201,311.9,200.5,311.8,200.1,311.8 M193.1,313.7c-0.3,1.1-0.6,2.3-0.8,3.5c-0.3,1.2-0.5,2.4-0.6,3.6
		c-0.1,1.2-0.2,2.2-0.2,3v0.3c0,0.2,0,0.3,0,0.5c0,0.2,0.1,0.3,0.1,0.4c0,0.1,0.1,0.2,0.2,0.2c0.1,0,0.3-0.2,0.4-0.5
		c0.1-0.3,0.2-0.7,0.3-1.1c0.1-0.4,0.2-0.8,0.2-1.2c0.1-0.4,0.1-0.6,0.1-0.7c0.3-1.8,0.5-3.6,0.7-5.4c0.2-1.8,0.3-3.6,0.4-5.5
		C193.7,311.6,193.4,312.6,193.1,313.7 M196.7,309.1c0.2,0,0.4,0.1,0.6,0.2c0.2,0.1,0.5,0.2,1,0.2c0.6,0,1.2-0.3,1.8-0.9
		c0.6-0.6,1.1-1.3,1.5-2.2c0.4-0.8,0.8-1.7,1-2.6c0.2-0.9,0.4-1.6,0.4-2.1c0-0.3-0.1-0.7-0.2-1c-0.1-0.4-0.4-0.5-0.8-0.5
		c-0.4,0-0.8,0.2-1.3,0.6c-0.5,0.4-1,0.8-1.5,1.4c-0.5,0.5-0.9,1.1-1.3,1.6c-0.4,0.6-0.7,1-0.9,1.3c-0.1,0.1-0.1,0.4-0.2,0.7
		c-0.1,0.4-0.1,0.8-0.2,1.2c-0.1,0.4-0.1,0.9-0.1,1.3c0,0.4-0.1,0.7-0.1,0.9C196.5,309.2,196.6,309.1,196.7,309.1"/>
        <path style="clip-path:url(#SVGID_00000175307472872932049410000011528646074889639862_);fill:#F6F6F6;" d="M209.2,305
		c0.3-1,0.7-1.9,1.2-2.7c0.5-0.8,1.1-1.6,1.9-2.1c0.7-0.6,1.6-0.9,2.5-0.9c0.6,0,1.1,0.1,1.5,0.4c0.4,0.3,0.7,0.6,0.9,1.1
		c0.2,0.4,0.4,0.9,0.5,1.4c0.1,0.5,0.1,1,0.1,1.5c0,0.7-0.1,1.4-0.2,2.1c-0.1,0.7-0.3,1.4-0.6,2.1c-0.3,0.7-0.6,1.3-1.1,1.8
		c-0.4,0.6-0.9,1.1-1.6,1.5c-0.4,0.2-0.8,0.4-1.2,0.6c-0.4,0.2-0.9,0.2-1.3,0.2c-0.6,0-1.1-0.1-1.4-0.4c-0.4-0.3-0.7-0.6-0.9-1
		c-0.2-0.4-0.4-0.9-0.5-1.4c-0.1-0.5-0.2-1-0.2-1.5C208.8,306.9,208.9,306,209.2,305 M213.2,302.1c-0.5,0.5-0.8,1.1-1.1,1.8
		c-0.3,0.7-0.5,1.4-0.7,2.1c-0.2,0.7-0.2,1.3-0.2,1.8c0,0.3,0,0.5,0.1,0.8c0,0.3,0.1,0.6,0.2,0.8c0.1,0.3,0.3,0.5,0.5,0.7
		c0.2,0.2,0.5,0.3,0.8,0.3c0.3,0,0.5-0.1,0.8-0.2c0.2-0.1,0.5-0.3,0.7-0.4c0.4-0.3,0.7-0.7,1-1.1c0.3-0.4,0.5-0.9,0.7-1.4
		c0.2-0.5,0.3-1,0.4-1.5c0.1-0.5,0.1-1,0.1-1.5c0-0.3,0-0.6-0.1-0.9c0-0.3-0.1-0.7-0.3-0.9c-0.1-0.3-0.3-0.5-0.5-0.7
		c-0.2-0.2-0.5-0.3-0.8-0.3C214.1,301.3,213.6,301.6,213.2,302.1"/>
        <path style="clip-path:url(#SVGID_00000175307472872932049410000011528646074889639862_);fill:#F6F6F6;" d="M226.7,308.2
		c-0.5,0.5-1,0.9-1.5,1.3c-0.5,0.4-1.1,0.8-1.6,1.1c-0.6,0.3-1.1,0.4-1.5,0.4c-0.3,0-0.6-0.1-0.9-0.3c-0.2-0.2-0.4-0.5-0.6-0.8
		c-0.1-0.3-0.3-0.6-0.3-1c-0.1-0.3-0.1-0.6-0.1-0.9c0-1.2,0.3-2.4,0.8-3.6c0.5-1.2,1.3-2.2,2.2-3c0.4-0.3,0.8-0.6,1.4-0.8
		c0.5-0.3,1.1-0.4,1.5-0.4c0.7,0,1.2,0.2,1.6,0.7c0-0.6,0-1.3,0.1-2.1c0.1-0.8,0.2-1.7,0.4-2.6c0.2-0.9,0.4-1.8,0.6-2.8
		c0.2-0.9,0.5-1.8,0.9-2.7c0.3-0.8,0.7-1.6,1.1-2.3c0.4-0.7,0.8-1.3,1.2-1.7c0.2-0.2,0.5-0.4,0.8-0.6c0.3-0.2,0.6-0.3,0.9-0.3
		c0.4,0,0.7,0.1,0.9,0.4c0.2,0.3,0.4,0.6,0.5,0.9c0.1,0.4,0.2,0.7,0.3,1.1c0,0.4,0.1,0.7,0.1,1c0,1.1-0.2,2.4-0.5,3.8
		c-0.4,1.4-0.8,2.9-1.4,4.4c-0.5,1.5-1.1,2.9-1.8,4.3c-0.6,1.4-1.2,2.6-1.7,3.6c0,0.2,0,0.6,0,1.2c0,0.5,0.1,1.1,0.2,1.7
		c0.1,0.6,0.2,1.1,0.4,1.5c0.2,0.4,0.4,0.6,0.8,0.6c0.5,0,0.9-0.2,1.4-0.5c0.5-0.3,1-0.7,1.4-1.2c0.4-0.5,0.8-0.9,1.2-1.4
		c0.4-0.5,0.7-0.9,0.9-1.3c0.1-0.2,0.2-0.4,0.4-0.6c0.2-0.3,0.4-0.4,0.6-0.4c0.2,0,0.3,0.1,0.4,0.2c0.1,0.1,0.1,0.3,0.1,0.4
		c0,0.2-0.1,0.5-0.2,0.7c-0.1,0.2-0.3,0.4-0.4,0.6c-0.3,0.5-0.7,1.1-1.2,1.7c-0.4,0.6-0.9,1.1-1.4,1.6c-0.5,0.5-1.1,0.9-1.7,1.3
		c-0.6,0.3-1.2,0.5-1.9,0.5c-0.6,0-1-0.2-1.4-0.5c-0.4-0.4-0.7-0.8-0.9-1.3c-0.3-0.5-0.5-1-0.6-1.6c-0.1-0.6-0.2-1-0.3-1.5
		C227.5,307.3,227.1,307.7,226.7,308.2 M225.5,303c-0.7,0.5-1.3,1-1.8,1.7c-0.5,0.7-1,1.4-1.3,2.2c-0.3,0.8-0.5,1.5-0.5,2.2
		c0,0.1,0,0.2,0,0.4c0,0.2,0.1,0.2,0.3,0.2c0.3,0,0.8-0.2,1.3-0.6c0.6-0.4,1.1-0.8,1.7-1.3c0.6-0.5,1.1-1,1.5-1.5
		c0.5-0.5,0.8-0.9,0.9-1.2c0-0.5-0.1-0.9-0.1-1.4v-1.4C226.8,302.3,226.1,302.5,225.5,303 M230,302.6c0.4-0.9,0.9-1.9,1.4-3.1
		c0.5-1.2,0.9-2.4,1.4-3.7c0.4-1.3,0.8-2.5,1-3.7c0.3-1.2,0.4-2.3,0.4-3.3v-0.2c0-0.1,0-0.2,0-0.3c0-0.1-0.1-0.2-0.1-0.3
		c0-0.1-0.1-0.1-0.2-0.1c-0.1,0-0.2,0-0.3,0.1c-0.1,0.1-0.2,0.2-0.2,0.2c-0.3,0.3-0.6,0.8-0.8,1.5c-0.3,0.7-0.5,1.5-0.8,2.4
		c-0.2,0.9-0.5,1.8-0.7,2.8c-0.2,1-0.4,2-0.6,2.9c-0.2,0.9-0.3,1.8-0.4,2.6c-0.1,0.8-0.1,1.4-0.1,1.9V302.6z"/>
        <path style="clip-path:url(#SVGID_00000175307472872932049410000011528646074889639862_);fill:#F6F6F6;" d="M238,311.4
		c-0.4-0.2-0.8-0.6-1.1-1c-0.3-0.4-0.5-0.8-0.6-1.4c-0.1-0.5-0.2-1.1-0.2-1.6c0-0.7,0.1-1.6,0.4-2.6c0.3-1,0.7-2,1.2-2.9
		c0.5-0.9,1.1-1.7,1.8-2.4s1.5-1,2.3-1c0.6,0,1,0.2,1.3,0.5c0.3,0.4,0.5,0.8,0.5,1.4c0,0.5-0.2,1.1-0.5,1.8
		c-0.3,0.6-0.7,1.3-1.2,1.9c-0.5,0.6-1,1.1-1.6,1.6c-0.6,0.5-1.1,0.8-1.6,1c-0.1,0.5-0.2,0.9-0.2,1.3c0,0.7,0.2,1.3,0.5,1.7
		c0.3,0.4,0.8,0.6,1.6,0.6c0.7,0,1.3-0.1,1.9-0.4c0.6-0.3,1.1-0.6,1.7-1c0.5-0.4,1-0.9,1.4-1.4c0.4-0.5,0.8-1.1,1.1-1.6
		c0.1-0.2,0.2-0.3,0.4-0.5c0.1-0.2,0.3-0.3,0.6-0.3c0.1,0,0.2,0,0.3,0.1c0.1,0.1,0.1,0.1,0.1,0.3c0,0.2,0,0.4-0.1,0.5
		c0,0.1-0.1,0.3-0.2,0.4c-0.4,0.7-0.9,1.4-1.5,2.1c-0.6,0.7-1.2,1.2-1.9,1.7c-0.7,0.5-1.5,0.9-2.3,1.2c-0.8,0.3-1.6,0.4-2.5,0.4
		C239,311.7,238.5,311.6,238,311.4 M240.7,300.6c-0.3,0.5-0.6,1-0.9,1.6c-0.3,0.6-0.5,1.2-0.7,1.8c-0.2,0.6-0.3,1.1-0.4,1.3
		c0.3-0.2,0.7-0.5,1.1-0.8c0.4-0.4,0.8-0.7,1.1-1.2c0.3-0.4,0.6-0.9,0.9-1.3c0.2-0.5,0.3-0.9,0.3-1.3c0-0.2,0-0.3-0.1-0.5
		c-0.1-0.2-0.2-0.2-0.4-0.2C241.4,299.9,241.1,300.1,240.7,300.6"/>
        <path style="clip-path:url(#SVGID_00000175307472872932049410000011528646074889639862_);fill:#F6F6F6;" d="M255.2,310.5
		c-0.1-0.4-0.3-0.9-0.4-1.5c-0.1-0.6-0.1-1.3-0.2-2.1c0-0.7-0.1-1.5-0.1-2.2v-1.8v-1.1c0-0.1,0-0.2,0-0.4c0-0.2-0.1-0.3-0.3-0.3
		c-0.2,0-0.5,0.2-0.9,0.6c-0.4,0.4-0.8,0.9-1.2,1.5c-0.4,0.6-0.9,1.3-1.3,2c-0.5,0.7-0.9,1.5-1.3,2.2c-0.4,0.7-0.8,1.3-1,1.9
		c-0.3,0.6-0.5,1-0.6,1.2c-0.1,0.2-0.2,0.5-0.4,0.7c-0.2,0.2-0.4,0.3-0.7,0.3c-0.2,0-0.4-0.1-0.5-0.2c-0.1-0.1-0.2-0.3-0.2-0.5
		c0-0.3,0-0.8,0.1-1.5c0.1-0.7,0.2-1.4,0.3-2.3c0.1-0.9,0.3-1.8,0.5-2.7c0.2-0.9,0.4-1.8,0.6-2.7c0.2-0.8,0.4-1.6,0.6-2.2
		c0.2-0.6,0.4-1.1,0.5-1.3c0.2-0.4,0.6-0.7,1.1-1c0.5-0.2,1-0.3,1.4-0.3c0.2,0,0.4,0.1,0.5,0.2c0.1,0.1,0.2,0.3,0.2,0.6
		c0,0.2,0,0.5-0.1,0.8c-0.1,0.3-0.2,0.6-0.3,0.9c-0.1,0.3-0.3,0.6-0.4,0.9c-0.1,0.3-0.2,0.6-0.3,0.8c-0.2,0.6-0.4,1.2-0.6,1.8
		c-0.1,0.6-0.3,1.2-0.4,1.8c0.2-0.3,0.6-0.8,1-1.4c0.4-0.6,0.8-1.2,1.3-1.8c0.5-0.6,1-1.1,1.5-1.5c0.5-0.4,1-0.7,1.4-0.7
		c0.3,0,0.5,0.1,0.7,0.3c0.2,0.2,0.3,0.4,0.4,0.7c0.1,0.3,0.2,0.6,0.2,0.9c0,0.3,0,0.6,0,0.8c0,0.6,0,1.2,0,1.8c0,0.6,0,1.2,0,1.8v1
		c0,0.3,0,0.7,0.1,1c0,0,0,0.1,0,0.1c0,0.1,0.1,0.1,0.1,0.1c0.1,0,0.1-0.1,0.2-0.2c0.1-0.2,0.2-0.3,0.2-0.3c0.4-0.6,0.8-1.3,1.2-1.9
		c0.4-0.6,0.9-1.2,1.3-1.8c0.3-0.4,0.6-0.8,0.9-1.3c0.3-0.5,0.7-1,1.1-1.4c0.4-0.4,0.8-0.8,1.3-1.1c0.5-0.3,0.9-0.5,1.4-0.5
		c0.3,0,0.6,0.1,0.9,0.3c0.3,0.2,0.5,0.4,0.6,0.6c0.2,0.3,0.3,0.5,0.4,0.8c0.1,0.3,0.1,0.6,0.1,0.9c0,1.2-0.1,2.5-0.2,3.7
		c-0.1,1.2-0.2,2.4-0.2,3.7c0,0.1,0,0.3,0,0.5c0,0.2,0,0.4,0.1,0.6c0.1,0.2,0.1,0.3,0.3,0.4c0.1,0.1,0.3,0.2,0.5,0.2
		c0.4,0,0.8-0.1,1.2-0.4c0.5-0.3,0.9-0.6,1.4-1c0.4-0.4,0.9-0.8,1.2-1.3s0.7-0.8,0.9-1.1c0.1-0.1,0.2-0.3,0.4-0.5
		c0.2-0.2,0.4-0.3,0.6-0.3c0.2,0,0.3,0.1,0.4,0.2c0.1,0.1,0.1,0.3,0.1,0.4c0,0.1,0,0.2-0.1,0.3c-0.1,0.1-0.1,0.2-0.2,0.3
		c-0.3,0.4-0.7,0.9-1.3,1.5c-0.5,0.6-1.1,1.1-1.7,1.6c-0.6,0.5-1.3,1-1.9,1.3c-0.6,0.4-1.2,0.5-1.8,0.5c-0.5,0-0.9-0.1-1.2-0.4
		c-0.3-0.3-0.5-0.7-0.7-1.1c-0.1-0.4-0.2-0.9-0.3-1.4c0-0.5,0-0.9,0-1.3c0-1,0-1.9,0.1-2.9c0.1-1,0.1-1.9,0.1-2.9c0-0.1,0-0.2,0-0.4
		c0-0.1,0-0.3-0.1-0.4c0-0.1-0.1-0.3-0.2-0.4c-0.1-0.1-0.2-0.2-0.3-0.2c-0.3,0-0.6,0.2-1,0.6c-0.4,0.4-0.8,0.9-1.2,1.5
		c-0.4,0.6-0.9,1.3-1.3,2.1s-0.9,1.5-1.3,2.2c-0.4,0.7-0.8,1.3-1.1,1.9c-0.3,0.6-0.5,1-0.7,1.2c-0.1,0.2-0.2,0.3-0.3,0.4
		c-0.1,0.1-0.3,0.2-0.5,0.2S255.3,311,255.2,310.5"/>
        <path style="clip-path:url(#SVGID_00000175307472872932049410000011528646074889639862_);fill:#F6F6F6;" d="M272.5,305
		c0.3-1,0.7-1.9,1.2-2.7c0.5-0.8,1.1-1.6,1.9-2.1c0.7-0.6,1.6-0.9,2.5-0.9c0.6,0,1.1,0.1,1.5,0.4c0.4,0.3,0.7,0.6,0.9,1.1
		c0.2,0.4,0.4,0.9,0.5,1.4c0.1,0.5,0.1,1,0.1,1.5c0,0.7-0.1,1.4-0.2,2.1c-0.1,0.7-0.3,1.4-0.6,2.1c-0.3,0.7-0.6,1.3-1.1,1.8
		s-0.9,1.1-1.6,1.5c-0.4,0.2-0.8,0.4-1.2,0.6c-0.4,0.2-0.9,0.2-1.3,0.2c-0.6,0-1.1-0.1-1.4-0.4c-0.4-0.3-0.7-0.6-0.9-1
		c-0.2-0.4-0.4-0.9-0.5-1.4c-0.1-0.5-0.2-1-0.2-1.5C272.1,306.9,272.2,306,272.5,305 M276.4,302.1c-0.5,0.5-0.8,1.1-1.1,1.8
		c-0.3,0.7-0.5,1.4-0.7,2.1c-0.2,0.7-0.2,1.3-0.2,1.8c0,0.3,0,0.5,0.1,0.8c0,0.3,0.1,0.6,0.2,0.8c0.1,0.3,0.3,0.5,0.5,0.7
		c0.2,0.2,0.5,0.3,0.8,0.3c0.3,0,0.5-0.1,0.8-0.2c0.2-0.1,0.5-0.3,0.7-0.4c0.4-0.3,0.7-0.7,1-1.1c0.3-0.4,0.5-0.9,0.7-1.4
		c0.2-0.5,0.3-1,0.4-1.5c0.1-0.5,0.1-1,0.1-1.5c0-0.3,0-0.6-0.1-0.9c0-0.3-0.1-0.7-0.3-0.9c-0.1-0.3-0.3-0.5-0.5-0.7
		c-0.2-0.2-0.5-0.3-0.8-0.3C277.4,301.3,276.9,301.6,276.4,302.1"/>
        <path style="clip-path:url(#SVGID_00000175307472872932049410000011528646074889639862_);fill:#F6F6F6;" d="M288.1,300.9
		c0.3,0.6,0.6,1.2,0.9,1.8c0.3,0.6,0.7,1.2,1,1.9c0.3,0.6,0.6,1.3,0.8,1.9c0.2,0.7,0.3,1.3,0.3,2c0,0.4-0.1,0.9-0.2,1.3
		c-0.1,0.4-0.3,0.8-0.6,1.2c0.4,0,0.8-0.1,1.3-0.5c0.5-0.4,1-0.8,1.5-1.2c0.5-0.5,1-1,1.4-1.5c0.4-0.5,0.7-0.9,0.9-1.2
		c0.1-0.1,0.2-0.3,0.4-0.5c0.1-0.2,0.3-0.3,0.5-0.3c0.2,0,0.3,0.1,0.4,0.2c0.1,0.1,0.1,0.3,0.1,0.4c0,0.1,0,0.2-0.1,0.3
		c-0.1,0.1-0.1,0.2-0.2,0.3c-0.6,0.9-1.2,1.8-1.9,2.5c-0.7,0.7-1.4,1.4-2.1,1.9c-0.8,0.5-1.6,0.9-2.6,1.2c-0.9,0.3-2,0.4-3.1,0.4
		c-0.6,0-1.3-0.1-2-0.2c-0.7-0.1-1.3-0.4-1.8-0.9c-0.1-0.1-0.2-0.2-0.3-0.3c-0.1-0.1-0.1-0.2-0.1-0.4c0-0.3,0.2-0.5,0.5-0.5
		c0.1,0,0.2,0,0.3,0.1c0.1,0,0.2,0.1,0.3,0.2c0.4,0.2,0.7,0.4,1.1,0.5c0.4,0.1,0.8,0.1,1.2,0.1c0.8,0,1.5-0.3,1.9-0.8
		c0.4-0.5,0.7-1.2,0.7-2c0-0.5-0.1-1-0.2-1.6s-0.3-1.1-0.5-1.7c-0.2-0.6-0.5-1.1-0.7-1.6c-0.3-0.5-0.5-1-0.8-1.4
		c-0.1,0.4-0.3,0.9-0.6,1.4s-0.5,1-0.7,1.5c-0.3,0.5-0.6,1-0.9,1.5c-0.3,0.5-0.6,0.9-0.9,1.2c-0.1,0.1-0.2,0.2-0.4,0.3
		s-0.3,0.2-0.5,0.2c-0.3,0-0.4-0.1-0.4-0.4c0-0.2,0-0.3,0.1-0.4c0.1-0.1,0.2-0.3,0.3-0.4c1.4-1.8,2.5-3.8,3.2-6.1
		c-0.2-0.6-0.3-1.1-0.3-1.7c0-0.3,0.1-0.7,0.2-1.1c0.1-0.4,0.3-0.8,0.4-1.2c0.2-0.4,0.4-0.7,0.7-1c0.3-0.3,0.6-0.4,1-0.4
		c0.2,0,0.4,0.1,0.5,0.2c0.1,0.1,0.2,0.3,0.3,0.4c0.1,0.2,0.1,0.4,0.2,0.6c0,0.2,0,0.4,0,0.5c0,0.5-0.1,1.1-0.2,1.6
		C288.4,299.9,288.3,300.4,288.1,300.9"/>
        <path style="clip-path:url(#SVGID_00000175307472872932049410000011528646074889639862_);fill:#F6F6F6;" d="M298.9,311
		c-0.3-0.2-0.4-0.5-0.4-0.9c0-0.4,0.1-0.7,0.2-1.1s0.5-0.5,0.9-0.5c0.3,0,0.7,0.1,0.9,0.4c0.3,0.2,0.4,0.5,0.4,0.9
		c0,0.4-0.1,0.8-0.2,1.1c-0.1,0.3-0.5,0.5-1,0.5C299.5,311.3,299.2,311.2,298.9,311 M304.1,287c0.2,0.3,0.3,0.7,0.3,1.3
		c0,0.3,0,0.7-0.1,1c-0.1,0.3-0.1,0.6-0.2,1c-0.3,1.4-0.6,2.8-0.9,4.2c-0.3,1.4-0.6,2.8-0.9,4.2c-0.2,0.8-0.3,1.7-0.5,2.5
		c-0.2,0.8-0.3,1.7-0.5,2.5c0,0.3-0.1,0.6-0.2,0.8c-0.1,0.2-0.4,0.4-0.7,0.4c-0.2,0-0.4-0.1-0.4-0.4c0-0.2-0.1-0.4-0.1-0.6
		c0-0.1,0-0.2,0-0.2c0-0.1,0-0.1,0-0.2c0-0.6,0.1-1.1,0.1-1.6c0-0.5,0.1-1.1,0.1-1.6c0.1-1.2,0.2-2.4,0.2-3.6
		c0.1-1.2,0.1-2.4,0.3-3.6c0-0.6,0.1-1.4,0.1-2.2c0.1-0.8,0.1-1.5,0.3-2.1c0.1-0.3,0.1-0.5,0.2-0.8c0.1-0.3,0.2-0.5,0.3-0.7
		s0.3-0.4,0.5-0.5c0.2-0.1,0.5-0.2,0.8-0.2C303.5,286.6,303.9,286.7,304.1,287"/>
</g>
</svg>
