<?xml version="1.0" encoding="utf-8"?>
<!-- Generator: Adobe Illustrator 26.1.0, SVG Export Plug-In . SVG Version: 6.00 Build 0)  -->
<svg version="1.1" id="Capa_1" xmlns="http://www.w3.org/2000/svg" xmlns:xlink="http://www.w3.org/1999/xlink" x="0px" y="0px"
	 viewBox="0 0 1870.87 1984.25" style="enable-background:new 0 0 1870.87 1984.25;" xml:space="preserve">
<style type="text/css">
	.st0{fill:#EC1C24;}
	.st1{fill:#FEFEFE;}
</style>
<path class="st0" d="M1869.17,530.29c-51.29,28.25-101.63,58.19-154.12,84.33c-70.76,35.25-145.06,47.16-221.83,16.44
	c-51.77-20.72-91.47-56.07-127.04-95.88c-51.39-57.5-91.65-122.07-133.89-185.39c-31.08-46.58-62.4-92.99-100.92-134.72
	c-36.08-39.09-78.14-68.95-132.66-82.21c-48.49-11.79-95.97-27.76-147.17-26.01c-60.22,2.07-113.96,23.29-165.89,49.46
	c-67.31,33.92-130.04,75.16-197.38,109.03c-61.43,30.9-125.21,55.65-194.95,64.62c-82.67,10.63-162.57-1.76-241.09-25.48
	c-17.82-5.38-35.5-11.17-52.06-19.55c0-57.24,0-114.47,0-171.71C6.02,59.62,38.89,25.79,90.02,5.11c10.14-4.1,21.18-2.38,31.38-5.46
	c543.21,0,1086.43,0,1629.64,0c57.24,5.48,93.34,36.28,115.41,84.19c4.38,9.5,2.54,19.85,5.82,29.4c0,6.16,0,12.33,0,18.49
	c-2.74,4.53-1.38,9.47-1.38,14.2c-0.09,123.42-0.05,246.84-0.15,370.26C1870.75,520.89,1872.36,525.87,1869.17,530.29z"/>
<path class="st0" d="M0.17,1127.65c44.04-21,75.05-13.94,102.94,24.2c22.99,31.45,35.97,67.28,49.41,102.81
	c21.26,56.19,40.74,112.97,67.2,167.36c43.74,89.94,114.3,157.83,198.95,214.12c118.93,79.08,251.48,131.44,389.47,172.79
	c36.99,11.09,73.89,23.06,112.27,29.05c51.51,8.03,100.55-4.83,148.93-19.39c68.57-20.64,134.67-48.03,204.17-66.19
	c79.79-20.85,159.95-29.29,241.15-6.75c75.52,20.96,136.23,63.27,189.8,115.76c30.55,29.93,57.24,62.77,82.58,96.69
	c7.18,9.61,4.9,13.38-5.55,16.31c-10.67,2.99-21.3,6.09-31.95,9.15c-542.75,0-1085.49,0-1628.24,0
	c-57.19-5.48-93.26-36.28-115.31-84.19c-4.37-9.5-2.54-19.85-5.82-29.4C0.17,1622.53,0.17,1375.09,0.17,1127.65z"/>
<path class="st1" d="M121.3-0.35C91.67,6.62,63.96,16.8,41.96,37.96C21.53,57.6,7.95,80.34,2.74,107.41
	c-0.39,2.02-1.69,3.89-2.57,5.83c0-35.66,0.18-71.33-0.18-106.99c-0.06-5.68,1.17-6.83,7.23-6.78C45.24-0.18,83.27-0.35,121.3-0.35z
	"/>
<path class="st1" d="M1870.67,113.24c-7.42-27.79-18.29-53.77-40.85-74.41c-20.94-19.16-45.19-31.89-74.06-36.78
	c-2.16-0.37-4.15-1.58-6.23-2.4c38.03,0,76.06,0.17,114.09-0.17c6.06-0.05,7.28,1.1,7.23,6.78
	C1870.49,41.92,1870.67,77.58,1870.67,113.24z"/>
<path class="st1" d="M0.17,1869.97c7.44,27.78,18.3,53.76,40.85,74.4c20.94,19.16,45.2,31.88,74.06,36.79
	c2.16,0.37,4.15,1.58,6.22,2.4c-38.03,0-76.06-0.17-114.09,0.17c-6.06,0.05-7.28-1.1-7.23-6.78
	C0.35,1941.29,0.17,1905.63,0.17,1869.97z"/>
</svg>
