<?xml version="1.0" encoding="utf-8"?>
<!-- Generator: Adobe Illustrator 26.0.0, SVG Export Plug-In . SVG Version: 6.00 Build 0)  -->
<svg version="1.1" id="Capa_1" xmlns="http://www.w3.org/2000/svg" xmlns:xlink="http://www.w3.org/1999/xlink" x="0px" y="0px"
	 viewBox="0 0 99.21 99.21" style="enable-background:new 0 0 99.21 99.21;" xml:space="preserve">
<style type="text/css">
	.st0{fill:#D83C2F;}
	.st1{fill:#E74033;}
	.st2{fill:#D1D1D1;}
	.st3{fill:#FEFEFE;}
	.st4{fill:#E84033;}
	.st5{fill:#BF2220;}
	.st6{fill:#BE2220;}
	.st7{fill:#E53B30;}
	.st8{fill:#EF4134;}
	.st9{fill:#D7332B;}
	.st10{fill:#CA2B25;}
	.st11{fill:#CD2C26;}
	.st12{fill:#D1D0D0;}
</style>
<g>
	<path class="st0" d="M45.74-0.04c2.4,0,4.79,0,7.19,0c1.69,0.17,3.4,0.13,5.09,0.32c3.52,0.4,6.87,1.43,10.15,2.73
		c4.84,1.91,9.29,4.48,13.34,7.75c1.38,1.12,2.58,2.43,3.95,3.56c0.3,0.25,0.49,0.6,0.53,1c-0.02,0.81-0.54,1.34-1.07,1.88
		c-5.33,5.32-10.66,10.64-15.99,15.95c-0.69,0.68-1.31,1.42-1.92,2.16c-0.57,0.18-0.93-0.18-1.25-0.54
		c-3.25-3.68-6.99-6.87-10.42-10.37c-0.53-0.54-0.84-1.33-1.67-1.56c-0.36-0.23-0.57-0.6-0.85-0.91c-0.69-0.78-1.6-1.15-2.62-1.28
		c-1.95-0.38-4.23,1.45-4.41,3.53c-0.04,0.45-0.01,0.9-0.03,1.36c-0.03,1.29-0.2,1.54-1.45,1.94c-1.4,0.44-2.73,1.01-3.96,1.8
		c-4.37,2.81-6.76,6.91-7.77,11.9c-0.29,1.43-0.42,2.86-0.42,4.33c0.03,4.65-0.01,9.31,0.02,13.96c0.01,1.01-0.29,1.79-1.03,2.49
		c-1.29,1.22-2.48,2.55-3.8,3.74c-0.92,0.83-1.37,1.75-1.21,2.98c0.04,0.32,0.01,0.65,0.03,0.97c0.02,0.3,0.17,0.51,0.41,0.72
		c1.17,1.05,2.26,2.2,3.37,3.32c0.31,0.31,0.67,0.64,0.48,1.17c-0.41,0.42-0.93,0.4-1.33,0.12c-0.72-0.5-1.15-0.17-1.65,0.33
		c-3.18,3.17-6.35,6.35-9.52,9.52c-0.65,0.65-1.34,1.1-2.29,1.03c-0.45-0.08-0.72-0.41-1.03-0.69C9.35,80.23,5.61,74.26,2.98,67.56
		C1.59,64,0.5,60.34,0.21,56.52c-0.26-3.5-0.23-7.02-0.18-10.54c0.06-4.45,0.93-8.71,2.4-12.87c2.05-5.77,4.99-11.04,8.98-15.72
		C16.8,11.08,23.29,6.3,30.98,3.18c4.61-1.87,9.37-3.13,14.4-3.12C45.51,0.06,45.63,0.06,45.74-0.04z"/>
	<path class="st1" d="M99.56,53.3c-0.4,1.16-0.35,2.39-0.53,3.58c-0.55,3.62-1.45,7.14-2.77,10.55c-0.39,1-0.89,1.96-1.34,2.93
		c-7.94,8.36-16.06,16.55-24.5,24.42c-1.81,0.88-3.67,1.64-5.63,2.13c-0.33-0.5,0.06-0.76,0.35-1.05
		c9.73-9.66,19.41-19.37,29.13-29.05c1.71-1.71,1.68-1.37,0.07-3.29c-1.35-1.6-2.75-3.17-4.33-4.54c-1.88-1.87-3.74-3.75-5.62-5.61
		c-0.59-0.58-0.98-1.37-1.77-1.77c-2.2-2.19-4.39-4.39-6.59-6.58c-0.59-0.59-1-1.36-1.77-1.76c-2.24-2.24-4.48-4.46-6.71-6.71
		c-0.34-0.35-0.85-0.65-0.62-1.29c-0.01-0.69,0.43-1.12,0.87-1.55c5.49-5.48,10.98-10.96,16.47-16.44c0.57-0.57,1.14-1.13,1.57-1.82
		c0.63-0.15,0.95,0.32,1.29,0.69c2.21,2.41,4.16,5.02,5.81,7.84c2.93,5,5.04,10.31,6.11,16.01c0.32,1.71,0.28,3.46,0.42,5.19
		c0.02,0.25-0.08,0.52,0.1,0.75C99.56,48.38,99.56,50.84,99.56,53.3z"/>
	<path class="st2" d="M25.73,69.98c-0.02-0.87-0.03-1.74-0.08-2.61c-0.02-0.45,0.26-0.7,0.54-0.98c1.6-1.6,3.19-3.21,4.82-4.79
		c0.5-0.49,0.72-0.98,0.71-1.69c-0.01-5.17-0.1-10.34,0.06-15.5C32,36.69,36.38,29.19,44.7,26.94c0.49-0.13,0.59-0.39,0.59-0.83
		c0-0.68-0.02-1.36,0.05-2.03c0.26-2.42,2.68-4.22,5.05-3.79c-0.14,0.9-0.14,1.8-0.14,2.7c0,14.97,0,29.94,0,44.91
		c0,0.73,0.13,1.49-0.32,2.16c-0.33,0.35-0.77,0.32-1.18,0.32c-7.15,0.03-14.3,0.02-21.46,0.01C26.73,70.41,26.21,70.27,25.73,69.98
		z"/>
	<path class="st3" d="M49.82,69.94c0-16.18,0-32.36,0-48.54c0-0.46-0.15-1.02,0.58-1.11c1.61,0.12,2.64,1.1,3.48,2.36
		c0.81,0.64,0.9,1.53,0.82,2.45c-0.09,0.93,0.28,1.41,1.19,1.66c3.21,0.86,5.42,3.14,7.64,5.43c3.39,3.5,4.54,7.85,4.82,12.53
		c-0.35,1.99-0.24,3.99-0.14,5.98c0.15,2.84,0.09,5.67,0.09,8.5c0,1.08,0.27,1.91,1.09,2.65c0.93,0.84,1.83,1.73,2.65,2.69
		c0.28,0.27,0.56,0.55,0.87,0.78c1.36,0.97,1.6,2.31,1.43,3.85c-0.09,0.77-0.43,1.2-1.22,1.21c-1.91,0.03-3.81,0.08-5.72-0.03
		c-5.14,0.12-10.28,0.06-15.41,0.04c-0.43-0.09-0.87,0.01-1.3-0.02C50.33,70.36,49.99,70.31,49.82,69.94z"/>
	<path class="st4" d="M55.31,98.9c-2.57,0.41-5.15,0.45-7.73,0.31c-10.26-0.53-19.53-3.84-27.75-10.01
		c-1.42-1.06-2.83-2.15-4.04-3.46c1.1-0.26,1.76-1.11,2.5-1.85c3.06-3.05,6.12-6.09,9.16-9.16c0.54-0.55,0.99-0.91,1.65-0.16
		c0.33,0.38,0.84,0.23,1.29,0.25c0.64-0.23,0.94,0.27,1.29,0.61c2.06,2.03,4.11,4.07,6.15,6.12c0.45,0.76,1.2,1.23,1.82,1.83
		c2.12,2.1,4.24,4.2,6.35,6.32c0.38,0.7,1.08,1.09,1.62,1.63c1.67,1.66,3.34,3.31,5,4.98c0.56,0.91,1.47,1.46,2.27,2.12
		C55.05,98.57,55.26,98.65,55.31,98.9z"/>
	<path class="st5" d="M37.57,81.81c-2.04-2-4.08-4.01-6.12-6.01c-0.34-0.34-0.71-0.65-1.06-0.98c-1.32-1.35-2.65-2.7-3.97-4.05
		c-0.24-0.25-0.47-0.52-0.7-0.79c7.65,0,15.29,0,22.94-0.01c0.39,0,0.77-0.02,1.16-0.03c0.71,0.02,1.42,0.04,2.13,0.06
		c0.27,0.56-0.1,0.91-0.42,1.27c-0.6,0.67-1.31,1.23-1.94,1.87c-1.27,0.33-2.55,0.12-3.83,0.16c-1.54,0.04-1.73,0.33-1.11,1.79
		c0.21,0.5,0.58,0.93,0.61,1.51c-0.07,0.89-0.53,1.54-1.16,2.14c-1.12,1.07-2.19,2.19-3.3,3.27c-1.22,1.2-1.54,1.2-2.82,0.08
		C37.84,81.99,37.71,81.89,37.57,81.81z"/>
	<path class="st6" d="M67.93,44.57c-0.26-3.99-1.28-7.73-3.61-11.05c-2.25-3.2-5.24-5.4-9.02-6.43c-0.86-0.24-1.04-0.63-0.98-1.4
		c0.08-1.03,0-2.06-0.43-3.03c0.47-0.12,0.6,0.31,0.83,0.53c3.79,3.76,7.56,7.53,11.33,11.3c0.27,0.27,0.57,0.52,0.86,0.77
		c2.13,2.16,4.27,4.32,6.39,6.48c0.41,0.41,0.79,0.85,1.19,1.27c0.14,0.26,0.35,0.46,0.53,0.69c0.43,0.57,0.45,1.13-0.06,1.65
		c-1.91,1.97-3.85,3.9-5.82,5.81c-0.26,0.26-0.58,0.45-0.96,0.27c-0.34-0.16-0.2-0.51-0.2-0.78C67.94,48.63,68.06,46.6,67.93,44.57z
		"/>
	<path class="st7" d="M55.31,98.9c-0.99,0.07-1.41-0.76-2-1.3c-0.35-0.32-0.65-0.7-0.97-1.05c0.11-0.14,0.29-0.23,0.43-0.16
		c0.99,0.5,1.54-0.16,2.14-0.76c11.41-11.41,22.83-22.8,34.26-34.2c0.67-0.67,1.41-1.27,0.9-2.37c-0.05-0.11,0.05-0.24,0.16-0.33
		c2.03,1.76,3.82,3.74,5.5,5.83c0.39,0.49,0.44,1-0.08,1.46c-0.17,0.15-0.32,0.32-0.48,0.48c-9.7,9.68-19.4,19.36-29.08,29.05
		c-0.44,0.45-1.11,0.69-1.31,1.37C61.71,97.97,58.55,98.65,55.31,98.9z"/>
	<path class="st8" d="M70.41,94.78c0.06-0.42,0.39-0.66,0.66-0.93C78.7,86.23,86.33,78.61,93.97,71c0.27-0.27,0.51-0.59,0.94-0.63
		c-0.25,1.12-0.88,2.06-1.43,3.04c-5.31,9.59-12.95,16.69-22.88,21.35C70.54,94.78,70.47,94.77,70.41,94.78z"/>
	<path class="st9" d="M90.23,58.73c0.13,0.26,0.24,0.52,0.38,0.77c0.25,0.45,0.24,0.86-0.15,1.23c-0.21,0.2-0.41,0.41-0.62,0.62
		c-11.56,11.53-23.11,23.07-34.67,34.6c-1.27,1.26-1.27,1.26-2.83,0.6c-2.28-2.12-4.48-4.32-6.61-6.59
		c0.14-0.18,0.35-0.24,0.52-0.16c0.85,0.38,1.38-0.09,1.94-0.64c6.16-6.16,12.34-12.3,18.48-18.48c0.25-0.26,0.55-0.45,0.83-0.66
		c1.9-0.01,3.79-0.05,5.69-0.02c0.65,0.01,0.69-0.25,0.81-0.81c0.45-2.1-0.96-3.22-2.18-4.45c-0.08-0.58,0.36-0.87,0.69-1.2
		c3.13-3.16,6.29-6.28,9.43-9.43c0.6-0.6,1.28-1.13,0.74-2.13c-0.1-0.19-0.04-0.45,0.17-0.61C85.39,53.73,87.85,56.19,90.23,58.73z"
		/>
	<path class="st10" d="M82.85,51.35c0.89,1.37,0.25,2.26-0.79,3.25c-3.47,3.32-6.84,6.74-10.25,10.11c-1.2-1.17-2.39-2.35-3.6-3.52
		c-0.26-0.25-0.3-0.54-0.3-0.87c0-5.25,0-10.51,0.01-15.76c0.33,0.81,0.13,1.66,0.15,2.49c0.04,1.19,0.01,2.39,0.01,3.58
		c0,0.19-0.04,0.41,0.15,0.53c0.22,0.13,0.36-0.06,0.49-0.19c2.02-2.01,4.02-4.02,6.04-6.02c0.3-0.3,0.29-0.62,0.14-0.98
		c-0.14-0.32-0.28-0.65-0.41-0.97C77.36,45.72,80.14,48.5,82.85,51.35z"/>
	<path class="st11" d="M67.5,70c-0.1,0.62-0.55,1.01-0.96,1.42c-6,5.99-12,11.97-17.99,17.96c-1.22,1.22-1.22,1.22-2.81,0.57
		c-2.8-2.64-5.52-5.35-8.16-8.14c1.94,0.88,1.94,0.88,3.56-0.74c0.82-0.82,1.63-1.65,2.46-2.45c0.58-0.56,1.12-1.13,1.44-1.88
		c0.4-0.14,0.68,0.1,0.94,0.33c1.02,0.9,2.27,1.28,3.55,1.61c0.32,0.08,0.56-0.09,0.83-0.15c2.44-0.33,4.26-1.82,4.82-3.99
		c0.09-0.34,0.33-0.75-0.13-1.04c-1.36-0.55-2.78-0.25-4.16-0.33c-0.43-0.03-0.91,0.15-1.24-0.28c0.12-0.63,0.67-0.92,1.05-1.34
		c0.45-0.5,1.01-0.9,1.28-1.55C57.13,70,62.31,70,67.5,70z"/>
	<path class="st12" d="M50.42,78.93c-1.78,0.27-3.29-0.34-4.63-1.46c-0.27-0.23-0.51-0.49-0.77-0.73c-0.58-0.9-1.04-1.84-1.21-2.91
		c-0.11-0.64,0.05-0.92,0.79-0.91c1.67,0.04,3.35-0.02,5.02-0.03c1.75,0.01,3.49,0.02,5.24,0.05c0.31,0,0.65-0.12,0.92,0.14
		c-0.26,0.42-0.69,0.42-1.11,0.43c-1.06,0.03-2.13-0.01-3.19,0.02c-1.03,0.02-1.21,0.18-1.21,1.18
		C50.26,76.11,50.16,77.53,50.42,78.93z"/>
	<path class="st3" d="M50.42,78.93c-0.4-0.07-0.61-0.26-0.61-0.71c0.02-1.47,0.02-2.95,0-4.42c-0.01-0.65,0.36-0.71,0.87-0.71
		c1.7,0,3.4-0.01,5.11-0.02C55.96,75.97,53.5,78.65,50.42,78.93z"/>
</g>
</svg>
