<?xml version="1.0" encoding="utf-8"?>
<!-- Generator: Adobe Illustrator 26.1.0, SVG Export Plug-In . SVG Version: 6.00 Build 0)  -->
<svg version="1.1" id="Capa_1" xmlns="http://www.w3.org/2000/svg" xmlns:xlink="http://www.w3.org/1999/xlink" x="0px" y="0px"
	 viewBox="0 0 68.03 68.03" width="24" height="24" style="enable-background:new 0 0 68.03 68.03; fill: #FFFFFF" xml:space="preserve">
<path d="M35.06,40.4c-5.79,8.56-11.22,16.57-16.63,24.61c-1.07,1.59-2.17,3.12-4.35,2.93c-3.07-0.27-3.97-3.36-1.81-6.59
	c5.47-8.18,10.94-16.38,16.62-24.42c1.59-2.26,1.46-3.74-0.08-5.93c-5.35-7.58-10.48-15.31-15.66-23.01
	c-1.56-2.32-4.07-4.96-0.49-7.28c3.25-2.11,4.77,0.88,6.3,3.14c5.26,7.77,10.53,15.53,16.1,23.75c5.69-8.4,11.09-16.38,16.5-24.36
	c0.87-1.29,1.62-2.73,3.38-3.06c1.39-0.26,2.56,0.14,3.41,1.23c1.39,1.77,0.76,3.46-0.35,5.11c-5.53,8.15-10.93,16.38-16.64,24.4
	c-1.72,2.41-1.56,3.97,0.08,6.29c5.44,7.69,10.6,15.57,15.9,23.36c1.5,2.21,3.19,4.66,0.29,6.69c-2.88,2.01-4.63-0.26-6.16-2.55
	C46.15,56.77,40.78,48.87,35.06,40.4z"/>
</svg>
