<svg xmlns="http://www.w3.org/2000/svg" xmlns:xlink="http://www.w3.org/1999/xlink" x="0px" y="0px"
                            viewBox="0 0 68.03 68.03"  width="24" height="24" style="fill:#ED1C24;" xml:space="preserve">
                           <path style="fill: #ED1C24" d="M33.84,57.81c-7.48,0-14.96-0.02-22.44,0.01c-1.87,0.01-3.64-0.2-4.32-2.25c-0.65-1.97,0.2-3.6,1.96-4.43
                                c4.25-2.01,4.92-5.44,4.63-9.7c-0.32-4.6-0.14-9.25-0.06-13.87c0.17-9.04,4.37-15.52,12.67-19.14c1.81-0.79,2.79-1.52,2.8-3.71
                                c0.02-3.12,2.18-4.72,5.08-4.66c2.69,0.06,4.82,1.67,4.74,4.57c-0.07,2.49,1.28,3.1,3.12,3.93c7.95,3.57,12.08,9.85,12.36,18.52
                                c0.18,5.43,0.19,10.89-0.02,16.32c-0.12,2.98,0.38,5.31,3.28,6.66c0.48,0.22,0.85,0.67,1.3,0.97c1.6,1.07,2.63,2.46,2.01,4.46
                                c-0.65,2.06-2.38,2.33-4.26,2.32C49.08,57.8,41.46,57.81,33.84,57.81z">
                           </path>
                           <path style="fill: #ED1C24" d="M33.96,68.1c-1.58-0.18-3.15-0.59-4.39-1.76c-1.21-1.14-2.51-2.52-2.06-4.2c0.55-2.04,2.54-0.81,3.85-0.93
	                            c2.29-0.21,4.62,0.05,6.92-0.09c2.55-0.16,2.82,1.03,1.9,2.93C38.95,66.61,36.8,67.86,33.96,68.1z">
                           </path>
                       </svg>